CrimsonPro-W0.ufo
<glyph name="numbersign" format="2">
  <advance width="524.0"/>
  <unicode hex="0023"/>
  <note>
numbersign
</note>
  <outline>
    <contour>
      <point x="270.0" y="0.0" type="line"/>
      <point x="311.0" y="0.0" type="line"/>
      <point x="436.0" y="587.0" type="line"/>
      <point x="393.0" y="587.0" type="line"/>
    </contour>
    <contour>
      <point x="30.0" y="174.0" type="line"/>
      <point x="475.0" y="174.0" type="line"/>
      <point x="475.0" y="217.0" type="line"/>
      <point x="30.0" y="217.0" type="line"/>
    </contour>
    <contour>
      <point x="88.0" y="0.0" type="line"/>
      <point x="131.0" y="0.0" type="line"/>
      <point x="254.0" y="587.0" type="line"/>
      <point x="212.0" y="587.0" type="line"/>
    </contour>
    <contour>
      <point x="49.0" y="370.0" type="line"/>
      <point x="494.0" y="370.0" type="line"/>
      <point x="494.0" y="413.0" type="line"/>
      <point x="49.0" y="413.0" type="line"/>
    </contour>
  </outline>
</glyph>
<glyph name="dollar" format="2">
  <advance width="466.0"/>
  <unicode hex="0024"/>
  <note>
dollar
</note>
  <outline>
    <contour>
      <point x="227.0" y="-116.0" type="line"/>
      <point x="263.0" y="-116.0" type="line"/>
      <point x="263.0" y="703.0" type="line"/>
      <point x="227.0" y="703.0" type="line"/>
    </contour>
    <contour>
      <point x="223.0" y="-9.0" type="curve" smooth="yes"/>
      <point x="336.0" y="-9.0"/>
      <point x="421.0" y="59.0"/>
      <point x="421.0" y="151.0" type="curve" smooth="yes"/>
      <point x="421.0" y="327.0"/>
      <point x="125.0" y="309.0"/>
      <point x="125.0" y="460.0" type="curve" smooth="yes"/>
      <point x="125.0" y="518.0"/>
      <point x="171.0" y="557.0"/>
      <point x="246.0" y="557.0" type="curve" smooth="yes"/>
      <point x="285.0" y="557.0"/>
      <point x="312.0" y="549.0"/>
      <point x="333.0" y="534.0" type="curve"/>
      <point x="359.0" y="458.0" type="line"/>
      <point x="392.0" y="461.0" type="line"/>
      <point x="386.0" y="575.0" type="line"/>
      <point x="353.0" y="590.0"/>
      <point x="312.0" y="597.0"/>
      <point x="256.0" y="597.0" type="curve" smooth="yes"/>
      <point x="143.0" y="597.0"/>
      <point x="60.0" y="532.0"/>
      <point x="60.0" y="440.0" type="curve" smooth="yes"/>
      <point x="60.0" y="256.0"/>
      <point x="356.0" y="276.0"/>
      <point x="356.0" y="132.0" type="curve" smooth="yes"/>
      <point x="356.0" y="70.0"/>
      <point x="307.0" y="33.0"/>
      <point x="236.0" y="33.0" type="curve" smooth="yes"/>
      <point x="188.0" y="33.0"/>
      <point x="149.0" y="47.0"/>
      <point x="115.0" y="69.0" type="curve"/>
      <point x="90.0" y="153.0" type="line"/>
      <point x="57.0" y="147.0" type="line"/>
      <point x="63.0" y="27.0" type="line"/>
      <point x="97.0" y="7.0"/>
      <point x="163.0" y="-9.0"/>
    </contour>
  </outline>
</glyph>
<glyph name="plus" format="2">
  <advance width="540.0"/>
  <unicode hex="002B"/>
  <outline>
    <contour>
      <point x="484.0" y="278.0" type="line"/>
      <point x="57.0" y="278.0" type="line"/>
      <point x="57.0" y="228.0" type="line"/>
      <point x="484.0" y="228.0" type="line"/>
    </contour>
    <contour>
      <point x="246.0" y="471.0" type="line"/>
      <point x="246.0" y="37.0" type="line"/>
      <point x="295.0" y="37.0" type="line"/>
      <point x="295.0" y="471.0" type="line"/>
    </contour>
  </outline>
</glyph>
<glyph name="comma" format="2">
  <advance width="209.0"/>
  <unicode hex="002C"/>
  <note>
comma
</note>
  <outline>
    <contour>
      <point x="40.0" y="-159.0" type="line"/>
      <point x="102.0" y="-135.0"/>
      <point x="156.0" y="-57.0"/>
      <point x="156.0" y="10.0" type="curve" smooth="yes"/>
      <point x="156.0" y="56.0"/>
      <point x="132.0" y="82.0"/>
      <point x="104.0" y="82.0" type="curve" smooth="yes"/>
      <point x="78.0" y="82.0"/>
      <point x="61.0" y="62.0"/>
      <point x="61.0" y="42.0" type="curve" smooth="yes"/>
      <point x="61.0" y="0.0"/>
      <point x="99.0" y="1.0"/>
      <point x="99.0" y="-40.0" type="curve" smooth="yes"/>
      <point x="99.0" y="-85.0"/>
      <point x="68.0" y="-117.0"/>
      <point x="28.0" y="-136.0" type="curve"/>
    </contour>
  </outline>
</glyph>
<glyph name="zero" format="2">
  <advance width="560.0"/>
  <unicode hex="0030"/>
  <note>
zero
</note>
  <outline>
    <contour>
      <point x="285.0" y="-9.0" type="curve" smooth="yes"/>
      <point x="409.0" y="-9.0"/>
      <point x="503.0" y="125.0"/>
      <point x="503.0" y="296.0" type="curve" smooth="yes"/>
      <point x="503.0" y="474.0"/>
      <point x="415.0" y="596.0"/>
      <point x="287.0" y="596.0" type="curve" smooth="yes"/>
      <point x="156.0" y="596.0"/>
      <point x="58.0" y="468.0"/>
      <point x="58.0" y="293.0" type="curve" smooth="yes"/>
      <point x="58.0" y="113.0"/>
      <point x="148.0" y="-9.0"/>
    </contour>
    <contour>
      <point x="288.0" y="29.0" type="curve" smooth="yes"/>
      <point x="192.0" y="29.0"/>
      <point x="130.0" y="140.0"/>
      <point x="130.0" y="307.0" type="curve" smooth="yes"/>
      <point x="130.0" y="463.0"/>
      <point x="185.0" y="556.0"/>
      <point x="281.0" y="556.0" type="curve" smooth="yes"/>
      <point x="374.0" y="556.0"/>
      <point x="434.0" y="449.0"/>
      <point x="434.0" y="273.0" type="curve" smooth="yes"/>
      <point x="434.0" y="130.0"/>
      <point x="375.0" y="29.0"/>
    </contour>
  </outline>
</glyph>
<glyph name="one" format="2">
  <advance width="321.0"/>
  <unicode hex="0031"/>
  <note>
one
</note>
  <outline>
    <contour>
      <point x="194.0" y="185.0" type="curve" smooth="yes"/>
      <point x="194.0" y="431.0" type="line" smooth="yes"/>
      <point x="194.0" y="522.0"/>
      <point x="194.0" y="565.0"/>
      <point x="196.0" y="596.0" type="curve"/>
      <point x="54.0" y="529.0" type="line"/>
      <point x="57.0" y="495.0" type="line"/>
      <point x="136.0" y="514.0" type="line"/>
      <point x="139.0" y="478.0"/>
      <point x="141.0" y="446.0"/>
      <point x="141.0" y="417.0" type="curve" smooth="yes"/>
      <point x="141.0" y="185.0" type="line" smooth="yes"/>
      <point x="141.0" y="104.0"/>
      <point x="138.0" y="55.0"/>
      <point x="137.0" y="43.0" type="curve"/>
      <point x="61.0" y="30.0" type="line"/>
      <point x="63.0" y="0.0" type="line"/>
      <point x="274.0" y="0.0" type="line"/>
      <point x="276.0" y="30.0" type="line"/>
      <point x="198.0" y="43.0" type="line"/>
      <point x="196.0" y="50.0"/>
      <point x="194.0" y="80.0"/>
    </contour>
  </outline>
</glyph>
<glyph name="two" format="2">
  <advance width="473.0"/>
  <unicode hex="0032"/>
  <note>
two
</note>
  <outline>
    <contour>
      <point x="52.0" y="-2.0" type="line"/>
      <point x="75.0" y="-1.0"/>
      <point x="100.0" y="0.0"/>
      <point x="125.0" y="0.0" type="curve" smooth="yes"/>
      <point x="325.0" y="0.0" type="line" smooth="yes"/>
      <point x="373.0" y="0.0"/>
      <point x="383.0" y="-1.0"/>
      <point x="412.0" y="-4.0" type="curve"/>
      <point x="429.0" y="150.0" type="line"/>
      <point x="399.0" y="153.0" type="line"/>
      <point x="365.0" y="63.0" type="line"/>
      <point x="363.0" y="61.0"/>
      <point x="348.0" y="60.0"/>
      <point x="340.0" y="60.0" type="curve" smooth="yes"/>
      <point x="112.0" y="60.0" type="line"/>
      <point x="106.0" y="43.0" type="line"/>
      <point x="291.0" y="188.0"/>
      <point x="381.0" y="319.0"/>
      <point x="381.0" y="428.0" type="curve" smooth="yes"/>
      <point x="381.0" y="529.0"/>
      <point x="309.0" y="596.0"/>
      <point x="203.0" y="596.0" type="curve" smooth="yes"/>
      <point x="125.0" y="596.0"/>
      <point x="60.0" y="548.0"/>
      <point x="29.0" y="474.0" type="curve"/>
      <point x="49.0" y="460.0" type="line"/>
      <point x="84.0" y="513.0"/>
      <point x="134.0" y="542.0"/>
      <point x="191.0" y="542.0" type="curve" smooth="yes"/>
      <point x="270.0" y="542.0"/>
      <point x="314.0" y="490.0"/>
      <point x="314.0" y="411.0" type="curve" smooth="yes"/>
      <point x="314.0" y="303.0"/>
      <point x="247.0" y="204.0"/>
      <point x="48.0" y="25.0" type="curve"/>
    </contour>
  </outline>
</glyph>
<glyph name="six" format="2">
  <advance width="503.0"/>
  <unicode hex="0036"/>
  <note>
six
</note>
  <outline>
    <contour>
      <point x="125.0" y="236.0" type="curve"/>
      <point x="130.0" y="207.0" type="line"/>
      <point x="163.0" y="260.0"/>
      <point x="205.0" y="285.0"/>
      <point x="256.0" y="285.0" type="curve" smooth="yes"/>
      <point x="329.0" y="285.0"/>
      <point x="379.0" y="232.0"/>
      <point x="379.0" y="159.0" type="curve" smooth="yes"/>
      <point x="379.0" y="82.0"/>
      <point x="333.0" y="31.0"/>
      <point x="269.0" y="31.0" type="curve" smooth="yes"/>
      <point x="184.0" y="31.0"/>
      <point x="137.0" y="100.0"/>
      <point x="137.0" y="215.0" type="curve" smooth="yes"/>
      <point x="137.0" y="397.0"/>
      <point x="236.0" y="521.0"/>
      <point x="411.0" y="568.0" type="curve"/>
      <point x="398.0" y="605.0" type="line"/>
      <point x="203.0" y="563.0"/>
      <point x="69.0" y="411.0"/>
      <point x="69.0" y="206.0" type="curve" smooth="yes"/>
      <point x="69.0" y="70.0"/>
      <point x="146.0" y="-9.0"/>
      <point x="263.0" y="-9.0" type="curve" smooth="yes"/>
      <point x="361.0" y="-9.0"/>
      <point x="447.0" y="76.0"/>
      <point x="447.0" y="174.0" type="curve" smooth="yes"/>
      <point x="447.0" y="269.0"/>
      <point x="373.0" y="336.0"/>
      <point x="276.0" y="336.0" type="curve" smooth="yes"/>
      <point x="212.0" y="336.0"/>
      <point x="154.0" y="300.0"/>
    </contour>
  </outline>
</glyph>
<glyph name="A" format="2">
  <advance width="571.0"/>
  <unicode hex="0041"/>
  <note>
A
</note>
  <anchor x="277.0" y="0.0" name="bottom"/>
  <anchor x="532.0" y="0.0" name="ogonek"/>
  <anchor x="282.0" y="587.0" name="top"/>
  <outline>
    <contour>
      <point x="6.0" y="0.0" type="line"/>
      <point x="162.0" y="0.0" type="line"/>
      <point x="164.0" y="32.0" type="line"/>
      <point x="104.0" y="45.0" type="line"/>
      <point x="160.0" y="201.0" type="line"/>
      <point x="171.0" y="231.0" type="line"/>
      <point x="286.0" y="544.0" type="line"/>
      <point x="265.0" y="521.0" type="line"/>
      <point x="379.0" y="232.0" type="line"/>
      <point x="390.0" y="203.0" type="line"/>
      <point x="451.0" y="45.0" type="line"/>
      <point x="391.0" y="32.0" type="line"/>
      <point x="393.0" y="0.0" type="line"/>
      <point x="564.0" y="0.0" type="line"/>
      <point x="566.0" y="32.0" type="line"/>
      <point x="517.0" y="45.0" type="line"/>
      <point x="305.0" y="605.0" type="line"/>
      <point x="259.0" y="576.0" type="line"/>
      <point x="53.0" y="45.0" type="line"/>
      <point x="4.0" y="32.0" type="line"/>
    </contour>
    <contour>
      <point x="137.0" y="192.0" type="line"/>
      <point x="199.0" y="193.0"/>
      <point x="247.0" y="194.0"/>
      <point x="282.0" y="194.0" type="curve" smooth="yes"/>
      <point x="318.0" y="194.0"/>
      <point x="369.0" y="193.0"/>
      <point x="425.0" y="192.0" type="curve"/>
      <point x="425.0" y="238.0" type="line"/>
      <point x="401.0" y="237.0"/>
      <point x="350.0" y="235.0"/>
      <point x="282.0" y="235.0" type="curve" smooth="yes"/>
      <point x="213.0" y="235.0"/>
      <point x="162.0" y="237.0"/>
      <point x="137.0" y="238.0" type="curve"/>
    </contour>
  </outline>
</glyph>
<glyph name="F" format="2">
  <advance width="492.0"/>
  <unicode hex="0046"/>
  <note>
F
</note>
  <anchor x="150.0" y="0.0" name="bottom"/>
  <anchor x="260.0" y="587.0" name="top"/>
  <outline>
    <contour>
      <point x="61.0" y="0.0" type="line"/>
      <point x="260.0" y="0.0" type="line"/>
      <point x="262.0" y="34.0" type="line"/>
      <point x="181.0" y="45.0" type="line"/>
      <point x="179.0" y="53.0"/>
      <point x="178.0" y="81.0"/>
      <point x="178.0" y="203.0" type="curve"/>
      <point x="177.0" y="416.0" type="line"/>
      <point x="177.0" y="464.0"/>
      <point x="177.0" y="532.0"/>
      <point x="178.0" y="542.0" type="curve"/>
      <point x="192.0" y="543.0"/>
      <point x="222.0" y="544.0"/>
      <point x="241.0" y="544.0" type="curve" smooth="yes"/>
      <point x="369.0" y="544.0" type="line" smooth="yes"/>
      <point x="383.0" y="544.0"/>
      <point x="397.0" y="543.0"/>
      <point x="403.0" y="542.0" type="curve"/>
      <point x="435.0" y="460.0" type="line"/>
      <point x="474.0" y="466.0" type="line"/>
      <point x="457.0" y="591.0" type="line"/>
      <point x="415.0" y="587.0"/>
      <point x="404.0" y="587.0"/>
      <point x="383.0" y="587.0" type="curve" smooth="yes"/>
      <point x="57.0" y="587.0" type="line"/>
      <point x="55.0" y="555.0" type="line"/>
      <point x="115.0" y="542.0" type="line"/>
      <point x="117.0" y="535.0"/>
      <point x="118.0" y="502.0"/>
      <point x="118.0" y="423.0" type="curve"/>
      <point x="117.0" y="181.0" type="line"/>
      <point x="117.0" y="86.0"/>
      <point x="116.0" y="53.0"/>
      <point x="114.0" y="45.0" type="curve"/>
      <point x="59.0" y="32.0" type="line"/>
    </contour>
    <contour>
      <point x="367.0" y="200.0" type="line"/>
      <point x="402.0" y="200.0" type="line"/>
      <point x="402.0" y="395.0" type="line"/>
      <point x="367.0" y="395.0" type="line"/>
      <point x="353.0" y="325.0" type="line"/>
      <point x="346.0" y="322.0"/>
      <point x="335.0" y="321.0"/>
      <point x="308.0" y="321.0" type="curve" smooth="yes"/>
      <point x="212.0" y="321.0" type="line" smooth="yes"/>
      <point x="197.0" y="321.0"/>
      <point x="180.0" y="322.0"/>
      <point x="163.0" y="323.0" type="curve"/>
      <point x="163.0" y="276.0" type="line"/>
      <point x="189.0" y="277.0"/>
      <point x="203.0" y="277.0"/>
      <point x="212.0" y="277.0" type="curve" smooth="yes"/>
      <point x="308.0" y="277.0" type="line" smooth="yes"/>
      <point x="331.0" y="277.0"/>
      <point x="348.0" y="276.0"/>
      <point x="353.0" y="273.0" type="curve"/>
    </contour>
  </outline>
</glyph>
<glyph name="H" format="2">
  <advance width="659.0"/>
  <unicode hex="0048"/>
  <note>
H
</note>
  <anchor x="330.0" y="0.0" name="bottom"/>
  <anchor x="330.0" y="434.0" name="center"/>
  <anchor x="330.0" y="587.0" name="top"/>
  <anchor x="25.0" y="587.0" name="topleft"/>
  <outline>
    <contour>
      <point x="417.0" y="0.0" type="line"/>
      <point x="606.0" y="0.0" type="line"/>
      <point x="608.0" y="32.0" type="line"/>
      <point x="547.0" y="45.0" type="line"/>
      <point x="543.0" y="52.0"/>
      <point x="542.0" y="80.0"/>
      <point x="542.0" y="189.0" type="curve" smooth="yes"/>
      <point x="542.0" y="397.0" type="line" smooth="yes"/>
      <point x="542.0" y="508.0"/>
      <point x="543.0" y="535.0"/>
      <point x="547.0" y="542.0" type="curve"/>
      <point x="608.0" y="555.0" type="line"/>
      <point x="606.0" y="587.0" type="line"/>
      <point x="417.0" y="587.0" type="line"/>
      <point x="415.0" y="555.0" type="line"/>
      <point x="476.0" y="542.0" type="line"/>
      <point x="479.0" y="535.0"/>
      <point x="481.0" y="504.0"/>
      <point x="481.0" y="397.0" type="curve" smooth="yes"/>
      <point x="481.0" y="189.0" type="line" smooth="yes"/>
      <point x="481.0" y="84.0"/>
      <point x="479.0" y="52.0"/>
      <point x="476.0" y="45.0" type="curve"/>
      <point x="415.0" y="32.0" type="line"/>
    </contour>
    <contour>
      <point x="55.0" y="0.0" type="line"/>
      <point x="242.0" y="0.0" type="line"/>
      <point x="244.0" y="32.0" type="line"/>
      <point x="183.0" y="45.0" type="line"/>
      <point x="180.0" y="52.0"/>
      <point x="178.0" y="84.0"/>
      <point x="178.0" y="189.0" type="curve" smooth="yes"/>
      <point x="178.0" y="397.0" type="line" smooth="yes"/>
      <point x="178.0" y="504.0"/>
      <point x="180.0" y="535.0"/>
      <point x="183.0" y="542.0" type="curve"/>
      <point x="244.0" y="555.0" type="line"/>
      <point x="242.0" y="587.0" type="line"/>
      <point x="55.0" y="587.0" type="line"/>
      <point x="53.0" y="555.0" type="line"/>
      <point x="114.0" y="542.0" type="line"/>
      <point x="116.0" y="533.0"/>
      <point x="117.0" y="490.0"/>
      <point x="117.0" y="397.0" type="curve" smooth="yes"/>
      <point x="117.0" y="189.0" type="line" smooth="yes"/>
      <point x="117.0" y="97.0"/>
      <point x="116.0" y="55.0"/>
      <point x="114.0" y="45.0" type="curve"/>
      <point x="53.0" y="32.0" type="line"/>
    </contour>
    <contour>
      <point x="170.0" y="277.0" type="line"/>
      <point x="200.0" y="281.0"/>
      <point x="250.0" y="281.0"/>
      <point x="331.0" y="281.0" type="curve" smooth="yes"/>
      <point x="410.0" y="281.0"/>
      <point x="456.0" y="281.0"/>
      <point x="488.0" y="277.0" type="curve"/>
      <point x="488.0" y="328.0" type="line"/>
      <point x="466.0" y="326.0"/>
      <point x="408.0" y="325.0"/>
      <point x="331.0" y="325.0" type="curve" smooth="yes"/>
      <point x="252.0" y="325.0"/>
      <point x="193.0" y="326.0"/>
      <point x="170.0" y="328.0" type="curve"/>
    </contour>
  </outline>
</glyph>
<glyph name="L" format="2">
  <advance width="493.0"/>
  <unicode hex="004C"/>
  <note>
L
</note>
  <anchor x="271.0" y="0.0" name="bottom"/>
  <anchor x="188.0" y="303.0" name="center"/>
  <anchor x="327.0" y="320.0" name="dotacc"/>
  <anchor x="149.0" y="587.0" name="top"/>
  <anchor x="358.0" y="587.0" name="topright"/>
  <outline>
    <contour>
      <point x="453.0" y="-4.0" type="curve"/>
      <point x="490.0" y="136.0" type="line"/>
      <point x="453.0" y="144.0" type="line"/>
      <point x="403.0" y="51.0" type="line"/>
      <point x="379.0" y="48.0"/>
      <point x="360.0" y="48.0"/>
      <point x="331.0" y="48.0" type="curve" smooth="yes"/>
      <point x="235.0" y="48.0" type="line" smooth="yes"/>
      <point x="215.0" y="48.0"/>
      <point x="198.0" y="49.0"/>
      <point x="182.0" y="50.0" type="curve"/>
      <point x="181.0" y="62.0"/>
      <point x="180.0" y="124.0"/>
      <point x="180.0" y="189.0" type="curve" smooth="yes"/>
      <point x="180.0" y="397.0" type="line" smooth="yes"/>
      <point x="180.0" y="499.0"/>
      <point x="181.0" y="534.0"/>
      <point x="185.0" y="541.0" type="curve"/>
      <point x="268.0" y="553.0" type="line"/>
      <point x="266.0" y="587.0" type="line"/>
      <point x="56.0" y="587.0" type="line"/>
      <point x="54.0" y="555.0" type="line"/>
      <point x="114.0" y="541.0" type="line"/>
      <point x="118.0" y="533.0"/>
      <point x="118.0" y="492.0"/>
      <point x="118.0" y="397.0" type="curve" smooth="yes"/>
      <point x="118.0" y="189.0" type="line" smooth="yes"/>
      <point x="118.0" y="94.0"/>
      <point x="116.0" y="54.0"/>
      <point x="114.0" y="45.0" type="curve"/>
      <point x="54.0" y="32.0" type="line"/>
      <point x="56.0" y="0.0" type="line"/>
      <point x="385.0" y="0.0" type="line"/>
      <point x="409.0" y="0.0"/>
      <point x="437.0" y="-2.0"/>
    </contour>
  </outline>
</glyph>
<glyph name="O" format="2">
  <advance width="678.0"/>
  <unicode hex="004F"/>
  <note>
O
</note>
  <anchor x="338.0" y="0.0" name="bottom"/>
  <anchor x="338.0" y="294.0" name="center"/>
  <anchor x="412.0" y="0.0" name="ogonek"/>
  <anchor x="338.0" y="587.0" name="top"/>
  <anchor x="19.0" y="587.0" name="topleft"/>
  <anchor x="659.0" y="587.0" name="topright"/>
  <outline>
    <contour>
      <point x="344.0" y="-9.0" type="curve" smooth="yes"/>
      <point x="508.0" y="-9.0"/>
      <point x="623.0" y="131.0"/>
      <point x="623.0" y="296.0" type="curve" smooth="yes"/>
      <point x="623.0" y="474.0"/>
      <point x="510.0" y="596.0"/>
      <point x="348.0" y="596.0" type="curve" smooth="yes"/>
      <point x="180.0" y="596.0"/>
      <point x="55.0" y="467.0"/>
      <point x="55.0" y="293.0" type="curve" smooth="yes"/>
      <point x="55.0" y="114.0"/>
      <point x="174.0" y="-9.0"/>
    </contour>
    <contour>
      <point x="355.0" y="35.0" type="curve" smooth="yes"/>
      <point x="226.0" y="35.0"/>
      <point x="133.0" y="149.0"/>
      <point x="133.0" y="307.0" type="curve" smooth="yes"/>
      <point x="133.0" y="459.0"/>
      <point x="210.0" y="554.0"/>
      <point x="336.0" y="554.0" type="curve" smooth="yes"/>
      <point x="462.0" y="554.0"/>
      <point x="549.0" y="438.0"/>
      <point x="549.0" y="273.0" type="curve" smooth="yes"/>
      <point x="549.0" y="130.0"/>
      <point x="470.0" y="35.0"/>
    </contour>
  </outline>
</glyph>
<glyph name="Q" format="2">
  <advance width="678.0"/>
  <unicode hex="0051"/>
  <note>
Q
</note>
  <anchor x="338.0" y="587.0" name="top"/>
  <outline>
    <contour>
      <point x="344.0" y="-8.0" type="curve"/>
      <point x="353.0" y="-7.0" type="line"/>
      <point x="510.0" y="-7.0"/>
      <point x="623.0" y="130.0"/>
      <point x="623.0" y="296.0" type="curve" smooth="yes"/>
      <point x="623.0" y="474.0"/>
      <point x="510.0" y="596.0"/>
      <point x="348.0" y="596.0" type="curve" smooth="yes"/>
      <point x="180.0" y="596.0"/>
      <point x="55.0" y="466.0"/>
      <point x="55.0" y="293.0" type="curve" smooth="yes"/>
      <point x="55.0" y="114.0"/>
      <point x="174.0" y="-8.0"/>
    </contour>
    <contour>
      <point x="596.0" y="-129.0" type="curve" smooth="yes"/>
      <point x="639.0" y="-129.0"/>
      <point x="683.0" y="-119.0"/>
      <point x="718.0" y="-98.0" type="curve"/>
      <point x="710.0" y="-67.0" type="line"/>
      <point x="691.0" y="-73.0"/>
      <point x="671.0" y="-76.0"/>
      <point x="649.0" y="-76.0" type="curve" smooth="yes"/>
      <point x="606.0" y="-76.0"/>
      <point x="558.0" y="-64.0"/>
      <point x="510.0" y="-38.0" type="curve" smooth="yes"/>
      <point x="470.0" y="-17.0"/>
      <point x="442.0" y="-3.0"/>
      <point x="378.0" y="4.0" type="curve"/>
      <point x="285.0" y="4.0" type="line"/>
      <point x="329.0" y="-5.0"/>
      <point x="420.0" y="-73.0"/>
      <point x="459.0" y="-91.0" type="curve" smooth="yes"/>
      <point x="518.0" y="-119.0"/>
      <point x="553.0" y="-129.0"/>
    </contour>
    <contour>
      <point x="355.0" y="35.0" type="curve" smooth="yes"/>
      <point x="226.0" y="35.0"/>
      <point x="133.0" y="149.0"/>
      <point x="133.0" y="307.0" type="curve" smooth="yes"/>
      <point x="133.0" y="459.0"/>
      <point x="210.0" y="554.0"/>
      <point x="336.0" y="554.0" type="curve" smooth="yes"/>
      <point x="462.0" y="554.0"/>
      <point x="549.0" y="438.0"/>
      <point x="549.0" y="273.0" type="curve" smooth="yes"/>
      <point x="549.0" y="131.0"/>
      <point x="470.0" y="35.0"/>
    </contour>
  </outline>
</glyph>
<glyph name="S" format="2">
  <advance width="466.0"/>
  <unicode hex="0053"/>
  <note>
S
</note>
  <anchor x="235.0" y="0.0" name="bottom"/>
  <anchor x="235.0" y="587.0" name="top"/>
  <outline>
    <contour>
      <point x="222.0" y="-9.0" type="curve" smooth="yes"/>
      <point x="336.0" y="-9.0"/>
      <point x="421.0" y="59.0"/>
      <point x="421.0" y="151.0" type="curve" smooth="yes"/>
      <point x="421.0" y="327.0"/>
      <point x="125.0" y="310.0"/>
      <point x="125.0" y="460.0" type="curve" smooth="yes"/>
      <point x="125.0" y="516.0"/>
      <point x="172.0" y="556.0"/>
      <point x="246.0" y="556.0" type="curve" smooth="yes"/>
      <point x="285.0" y="556.0"/>
      <point x="312.0" y="549.0"/>
      <point x="333.0" y="534.0" type="curve"/>
      <point x="359.0" y="457.0" type="line"/>
      <point x="392.0" y="461.0" type="line"/>
      <point x="386.0" y="575.0" type="line"/>
      <point x="353.0" y="589.0"/>
      <point x="312.0" y="597.0"/>
      <point x="257.0" y="597.0" type="curve" smooth="yes"/>
      <point x="143.0" y="597.0"/>
      <point x="60.0" y="532.0"/>
      <point x="60.0" y="440.0" type="curve" smooth="yes"/>
      <point x="60.0" y="256.0"/>
      <point x="355.0" y="275.0"/>
      <point x="355.0" y="132.0" type="curve" smooth="yes"/>
      <point x="355.0" y="71.0"/>
      <point x="306.0" y="34.0"/>
      <point x="238.0" y="34.0" type="curve" smooth="yes"/>
      <point x="188.0" y="34.0"/>
      <point x="149.0" y="47.0"/>
      <point x="115.0" y="69.0" type="curve"/>
      <point x="90.0" y="151.0" type="line"/>
      <point x="57.0" y="147.0" type="line"/>
      <point x="63.0" y="27.0" type="line"/>
      <point x="98.0" y="7.0"/>
      <point x="163.0" y="-9.0"/>
    </contour>
  </outline>
</glyph>
<glyph name="U" format="2">
  <advance width="649.0"/>
  <unicode hex="0055"/>
  <note>
U
</note>
  <anchor x="332.0" y="0.0" name="bottom"/>
  <anchor x="401.0" y="0.0" name="ogonek"/>
  <anchor x="333.0" y="587.0" name="top"/>
  <anchor x="629.0" y="587.0" name="topright"/>
  <outline>
    <contour>
      <point x="52.0" y="587.0" type="line"/>
      <point x="50.0" y="555.0" type="line"/>
      <point x="110.0" y="541.0" type="line"/>
      <point x="111.0" y="535.0"/>
      <point x="114.0" y="518.0"/>
      <point x="114.0" y="397.0" type="curve" smooth="yes"/>
      <point x="114.0" y="209.0" type="line" smooth="yes"/>
      <point x="114.0" y="71.0"/>
      <point x="197.0" y="-9.0"/>
      <point x="332.0" y="-9.0" type="curve" smooth="yes"/>
      <point x="444.0" y="-9.0"/>
      <point x="536.0" y="57.0"/>
      <point x="536.0" y="229.0" type="curve" smooth="yes"/>
      <point x="536.0" y="379.0" type="line" smooth="yes"/>
      <point x="536.0" y="515.0"/>
      <point x="538.0" y="535.0"/>
      <point x="538.0" y="541.0" type="curve"/>
      <point x="598.0" y="555.0" type="line"/>
      <point x="595.0" y="587.0" type="line"/>
      <point x="414.0" y="587.0" type="line"/>
      <point x="412.0" y="555.0" type="line"/>
      <point x="482.0" y="541.0" type="line"/>
      <point x="485.0" y="523.0"/>
      <point x="487.0" y="460.0"/>
      <point x="487.0" y="379.0" type="curve" smooth="yes"/>
      <point x="487.0" y="228.0" type="line" smooth="yes"/>
      <point x="487.0" y="91.0"/>
      <point x="423.0" y="44.0"/>
      <point x="338.0" y="44.0" type="curve" smooth="yes"/>
      <point x="247.0" y="44.0"/>
      <point x="179.0" y="88.0"/>
      <point x="177.0" y="219.0" type="curve"/>
      <point x="177.0" y="397.0" type="line"/>
      <point x="176.0" y="520.0"/>
      <point x="179.0" y="538.0"/>
      <point x="180.0" y="541.0" type="curve"/>
      <point x="240.0" y="555.0" type="line"/>
      <point x="238.0" y="587.0" type="line"/>
    </contour>
  </outline>
</glyph>
<glyph name="a" format="2">
  <advance width="465.0"/>
  <unicode hex="0061"/>
  <note>
a
</note>
  <anchor x="245.0" y="0.0" name="bottom"/>
  <anchor x="414.0" y="0.0" name="ogonek"/>
  <anchor x="226.0" y="425.0" name="top"/>
  <outline>
    <contour>
      <point x="202.0" y="-8.0" type="curve" smooth="yes"/>
      <point x="244.0" y="-8.0"/>
      <point x="282.0" y="13.0"/>
      <point x="328.0" y="63.0" type="curve"/>
      <point x="316.0" y="60.0" type="line"/>
      <point x="323.0" y="24.0" type="line" smooth="yes"/>
      <point x="327.0" y="4.0"/>
      <point x="340.0" y="-8.0"/>
      <point x="356.0" y="-8.0" type="curve" smooth="yes"/>
      <point x="364.0" y="-8.0"/>
      <point x="378.0" y="-3.0"/>
      <point x="394.0" y="2.0" type="curve" smooth="yes"/>
      <point x="436.0" y="16.0" type="line"/>
      <point x="436.0" y="41.0" type="line"/>
      <point x="373.0" y="53.0" type="line"/>
      <point x="370.0" y="64.0"/>
      <point x="367.0" y="96.0"/>
      <point x="367.0" y="115.0" type="curve"/>
      <point x="369.0" y="297.0" type="line"/>
      <point x="368.0" y="378.0"/>
      <point x="307.0" y="433.0"/>
      <point x="219.0" y="433.0" type="curve"/>
      <point x="145.0" y="423.0"/>
      <point x="72.0" y="373.0"/>
      <point x="72.0" y="333.0" type="curve" smooth="yes"/>
      <point x="72.0" y="305.0"/>
      <point x="105.0" y="290.0"/>
      <point x="144.0" y="301.0" type="curve"/>
      <point x="145.0" y="333.0" type="line" smooth="yes"/>
      <point x="147.0" y="381.0"/>
      <point x="157.0" y="392.0"/>
      <point x="196.0" y="392.0" type="curve" smooth="yes"/>
      <point x="263.0" y="392.0"/>
      <point x="315.0" y="352.0"/>
      <point x="315.0" y="298.0" type="curve" smooth="yes"/>
      <point x="315.0" y="240.0" type="line"/>
      <point x="165.0" y="187.0" type="line" smooth="yes"/>
      <point x="96.0" y="163.0"/>
      <point x="70.0" y="138.0"/>
      <point x="70.0" y="95.0" type="curve" smooth="yes"/>
      <point x="70.0" y="39.0"/>
      <point x="130.0" y="-8.0"/>
    </contour>
    <contour>
      <point x="217.0" y="36.0" type="curve" smooth="yes"/>
      <point x="175.0" y="36.0"/>
      <point x="136.0" y="69.0"/>
      <point x="136.0" y="104.0" type="curve" smooth="yes"/>
      <point x="136.0" y="132.0"/>
      <point x="149.0" y="150.0"/>
      <point x="181.0" y="159.0" type="curve" smooth="yes"/>
      <point x="315.0" y="198.0" type="line"/>
      <point x="315.0" y="89.0" type="line"/>
      <point x="285.0" y="53.0"/>
      <point x="254.0" y="36.0"/>
    </contour>
  </outline>
</glyph>
<glyph name="f" format="2">
  <advance width="289.0"/>
  <unicode hex="0066"/>
  <note>
    f
  </note>
  <outline>
    <contour>
      <point x="236.0" y="0.0" type="line"/>
      <point x="238.0" y="34.0" type="line"/>
      <point x="156.0" y="45.0" type="line"/>
      <point x="155.0" y="70.0"/>
      <point x="154.0" y="129.0"/>
      <point x="154.0" y="183.0" type="curve"/>
      <point x="153.0" y="380.0" type="line"/>
      <point x="152.0" y="423.0" type="line"/>
      <point x="151.991795588071" y="485.8687093600445" type="line" smooth="yes"/>
      <point x="151.97338491853856" y="608.993886940222"/>
      <point x="215.73747877327946" y="661.6802894599984"/>
      <point x="260.7499077394307" y="661.6802894599984" type="curve" smooth="yes"/>
      <point x="280.04094872492135" y="661.6802894599984"/>
      <point x="302.9490598951975" y="646.8101120336805"/>
      <point x="313.29244809312763" y="595.4961444985688" type="curve"/>
      <point x="314.2569019624266" y="594.7876930663983"/>
      <point x="317.0428113599655" y="594.1616460107716"/>
      <point x="319.82872075750424" y="594.1616460107716" type="curve" smooth="yes"/>
      <point x="361.69295900727275" y="594.1616460107716"/>
      <point x="369.6639099700287" y="615.3323478585721"/>
      <point x="369.6639099700287" y="630.3323478585717" type="curve" smooth="yes"/>
      <point x="369.6639099700287" y="665.0576998018598"/>
      <point x="338.79463063762705" y="697.2816791339023"/>
      <point x="265.3914779514171" y="697.2816791339023" type="curve" smooth="yes"/>
      <point x="187.78195042306174" y="697.2816791339023"/>
      <point x="100.97608112733049" y="626.677342355023"/>
      <point x="100.991795588071" y="469.8687093600445" type="curve" smooth="yes"/>
      <point x="101.0" y="380.0" type="line"/>
      <point x="102.0" y="173.0" type="line"/>
      <point x="102.0" y="96.0"/>
      <point x="102.0" y="66.0"/>
      <point x="101.0" y="45.0" type="curve"/>
      <point x="39.0" y="31.0" type="line"/>
      <point x="41.0" y="0.0" type="line"/>
    </contour>
    <contour>
      <point x="29.0" y="380.0" type="line"/>
      <point x="266.0" y="380.0" type="line"/>
      <point x="266.0" y="423.0" type="line"/>
      <point x="183.0" y="423.0" type="line"/>
      <point x="101.0" y="423.0" type="line"/>
      <point x="29.0" y="406.0" type="line"/>
    </contour>
  </outline>
</glyph>
<glyph name="g" format="2">
  <advance width="486.0"/>
  <unicode hex="0067"/>
  <note>
g
</note>
  <anchor x="240.0" y="-220.0" name="bottom"/>
  <anchor x="238.0" y="425.0" name="top"/>
  <outline>
    <contour>
      <point x="230.0" y="-228.0" type="curve" smooth="yes"/>
      <point x="349.0" y="-228.0"/>
      <point x="444.0" y="-158.0"/>
      <point x="444.0" y="-68.0" type="curve" smooth="yes"/>
      <point x="444.0" y="2.0"/>
      <point x="394.0" y="35.0"/>
      <point x="307.0" y="44.0" type="curve" smooth="yes"/>
      <point x="189.0" y="56.0" type="line" smooth="yes"/>
      <point x="153.0" y="60.0"/>
      <point x="132.0" y="76.0"/>
      <point x="132.0" y="97.0" type="curve" smooth="yes"/>
      <point x="132.0" y="110.0"/>
      <point x="144.0" y="125.0"/>
      <point x="175.0" y="146.0" type="curve"/>
      <point x="163.0" y="168.0" type="line"/>
      <point x="107.0" y="139.0"/>
      <point x="75.0" y="104.0"/>
      <point x="75.0" y="71.0" type="curve" smooth="yes"/>
      <point x="75.0" y="36.0"/>
      <point x="114.0" y="5.0"/>
      <point x="154.0" y="5.0" type="curve"/>
      <point x="172.0" y="2.0" type="line"/>
      <point x="270.0" y="-6.0" type="line" smooth="yes"/>
      <point x="352.0" y="-12.0"/>
      <point x="386.0" y="-35.0"/>
      <point x="386.0" y="-85.0" type="curve" smooth="yes"/>
      <point x="386.0" y="-150.0"/>
      <point x="324.0" y="-194.0"/>
      <point x="232.0" y="-194.0" type="curve" smooth="yes"/>
      <point x="155.0" y="-194.0"/>
      <point x="107.0" y="-161.0"/>
      <point x="107.0" y="-104.0" type="curve" smooth="yes"/>
      <point x="107.0" y="-62.0"/>
      <point x="133.0" y="-26.0"/>
      <point x="183.0" y="2.0" type="curve"/>
      <point x="148.0" y="12.0" type="line"/>
      <point x="69.0" y="-36.0"/>
      <point x="43.0" y="-72.0"/>
      <point x="43.0" y="-118.0" type="curve" smooth="yes"/>
      <point x="43.0" y="-184.0"/>
      <point x="117.0" y="-228.0"/>
    </contour>
    <contour>
      <point x="240.0" y="127.0" type="curve" smooth="yes"/>
      <point x="330.0" y="127.0"/>
      <point x="405.0" y="196.0"/>
      <point x="405.0" y="282.0" type="curve" smooth="yes"/>
      <point x="405.0" y="370.0"/>
      <point x="334.0" y="432.0"/>
      <point x="237.0" y="432.0" type="curve" smooth="yes"/>
      <point x="140.0" y="432.0"/>
      <point x="67.0" y="361.0"/>
      <point x="67.0" y="269.0" type="curve" smooth="yes"/>
      <point x="67.0" y="188.0"/>
      <point x="141.0" y="127.0"/>
    </contour>
    <contour>
      <point x="244.0" y="159.0" type="curve" smooth="yes"/>
      <point x="176.0" y="159.0"/>
      <point x="131.0" y="209.0"/>
      <point x="131.0" y="283.0" type="curve" smooth="yes"/>
      <point x="131.0" y="353.0"/>
      <point x="174.0" y="402.0"/>
      <point x="236.0" y="402.0" type="curve" smooth="yes"/>
      <point x="300.0" y="402.0"/>
      <point x="343.0" y="351.0"/>
      <point x="343.0" y="273.0" type="curve" smooth="yes"/>
      <point x="343.0" y="204.0"/>
      <point x="305.0" y="159.0"/>
    </contour>
    <contour>
      <point x="468.0" y="369.0" type="line"/>
      <point x="468.0" y="425.0" type="line"/>
      <point x="316.0" y="411.0" type="line"/>
      <point x="356.0" y="375.0" type="line"/>
    </contour>
  </outline>
</glyph>
<glyph name="s" format="2">
  <advance width="397.0"/>
  <unicode hex="0073"/>
  <note>
    s
  </note>
  <anchor x="200.0" y="0.0" name="bottom"/>
  <anchor x="205.0" y="425.0" name="top"/>
  <outline>
    <contour>
      <point x="198.0" y="-8.0" type="curve" smooth="yes"/>
      <point x="283.0" y="-8.0"/>
      <point x="348.0" y="41.0"/>
      <point x="348.0" y="107.0" type="curve" smooth="yes"/>
      <point x="348.0" y="159.0"/>
      <point x="319.0" y="191.0"/>
      <point x="231.0" y="234.0" type="curve" smooth="yes"/>
      <point x="153.0" y="272.0"/>
      <point x="126.0" y="291.0"/>
      <point x="126.0" y="335.0" type="curve" smooth="yes"/>
      <point x="126.0" y="372.0"/>
      <point x="158.0" y="399.0"/>
      <point x="209.0" y="399.0" type="curve" smooth="yes"/>
      <point x="231.0" y="399.0"/>
      <point x="243.53473424184858" y="395.58674879111345"/>
      <point x="257.5347342418486" y="387.58674879111345" type="curve"/>
      <point x="293.70543608964863" y="320.06810534188685" type="line"/>
      <point x="328.0" y="320.0" type="line"/>
      <point x="317.0" y="418.0" type="line"/>
      <point x="291.0" y="428.0"/>
      <point x="252.0" y="433.0"/>
      <point x="218.0" y="433.0" type="curve" smooth="yes"/>
      <point x="127.0" y="433.0"/>
      <point x="65.0" y="386.0"/>
      <point x="65.0" y="320.0" type="curve" smooth="yes"/>
      <point x="65.0" y="262.0"/>
      <point x="99.0" y="233.0"/>
      <point x="191.0" y="190.0" type="curve" smooth="yes"/>
      <point x="264.0" y="156.0"/>
      <point x="287.0" y="133.0"/>
      <point x="287.0" y="95.0" type="curve" smooth="yes"/>
      <point x="287.0" y="54.0"/>
      <point x="251.0" y="27.0"/>
      <point x="204.0" y="27.0" type="curve" smooth="yes"/>
      <point x="171.0" y="27.0"/>
      <point x="149.7221042769661" y="32.591634857781855"/>
      <point x="127.72210427696609" y="49.591634857781855" type="curve"/>
      <point x="98.38364611152838" y="124.3444186765687" type="line"/>
      <point x="62.0" y="124.0" type="line"/>
      <point x="67.0" y="22.0" type="line"/>
      <point x="101.0" y="4.0"/>
      <point x="151.0" y="-8.0"/>
    </contour>
  </outline>
</glyph>
<glyph name="braceleft" format="2">
  <advance width="363.0"/>
  <unicode hex="007B"/>
  <note>
braceleft
</note>
  <outline>
    <contour>
      <point x="188.0" y="-84.0" type="curve" smooth="yes"/>
      <point x="188.0" y="-9.0"/>
      <point x="233.0" y="56.0"/>
      <point x="233.0" y="136.0" type="curve" smooth="yes"/>
      <point x="233.0" y="199.0"/>
      <point x="199.0" y="247.0"/>
      <point x="119.0" y="259.0" type="curve"/>
      <point x="119.0" y="245.0" type="line"/>
      <point x="202.0" y="257.0"/>
      <point x="233.0" y="306.0"/>
      <point x="233.0" y="366.0" type="curve" smooth="yes"/>
      <point x="233.0" y="446.0"/>
      <point x="188.0" y="511.0"/>
      <point x="188.0" y="586.0" type="curve" smooth="yes"/>
      <point x="188.0" y="642.0"/>
      <point x="218.0" y="677.0"/>
      <point x="299.0" y="696.0" type="curve"/>
      <point x="294.0" y="730.0" type="line"/>
      <point x="184.0" y="712.0"/>
      <point x="138.0" y="657.0"/>
      <point x="138.0" y="577.0" type="curve" smooth="yes"/>
      <point x="138.0" y="503.0"/>
      <point x="186.0" y="416.0"/>
      <point x="186.0" y="352.0" type="curve" smooth="yes"/>
      <point x="186.0" y="298.0"/>
      <point x="145.0" y="271.0"/>
      <point x="79.0" y="268.0" type="curve"/>
      <point x="79.0" y="234.0" type="line"/>
      <point x="145.0" y="231.0"/>
      <point x="186.0" y="204.0"/>
      <point x="186.0" y="150.0" type="curve" smooth="yes"/>
      <point x="186.0" y="86.0"/>
      <point x="138.0" y="-1.0"/>
      <point x="138.0" y="-75.0" type="curve" smooth="yes"/>
      <point x="138.0" y="-155.0"/>
      <point x="184.0" y="-210.0"/>
      <point x="294.0" y="-228.0" type="curve"/>
      <point x="299.0" y="-194.0" type="line"/>
      <point x="218.0" y="-175.0"/>
      <point x="188.0" y="-140.0"/>
    </contour>
  </outline>
</glyph>
<glyph name="copyright" format="2">
  <advance width="810.0"/>
  <unicode hex="00A9"/>
  <outline>
    <contour>
      <point x="406.0" y="-3.0" type="curve" smooth="yes"/>
      <point x="603.0" y="-3.0"/>
      <point x="755.0" y="150.0"/>
      <point x="755.0" y="349.0" type="curve" smooth="yes"/>
      <point x="755.0" y="549.0"/>
      <point x="603.0" y="701.0"/>
      <point x="406.0" y="701.0" type="curve" smooth="yes"/>
      <point x="207.0" y="701.0"/>
      <point x="55.0" y="549.0"/>
      <point x="55.0" y="349.0" type="curve" smooth="yes"/>
      <point x="55.0" y="150.0"/>
      <point x="208.0" y="-3.0"/>
    </contour>
    <contour>
      <point x="429.0" y="153.0" type="curve" smooth="yes"/>
      <point x="476.0" y="153.0"/>
      <point x="521.0" y="168.0"/>
      <point x="553.0" y="184.0" type="curve"/>
      <point x="573.0" y="268.0" type="line"/>
      <point x="543.0" y="271.0" type="line"/>
      <point x="511.0" y="210.0" type="line"/>
      <point x="489.0" y="197.0"/>
      <point x="464.0" y="190.0"/>
      <point x="435.0" y="190.0" type="curve" smooth="yes"/>
      <point x="344.0" y="190.0"/>
      <point x="275.0" y="252.0"/>
      <point x="275.0" y="362.0" type="curve" smooth="yes"/>
      <point x="275.0" y="448.0"/>
      <point x="320.0" y="518.0"/>
      <point x="432.0" y="518.0" type="curve" smooth="yes"/>
      <point x="457.0" y="518.0"/>
      <point x="491.0" y="512.0"/>
      <point x="509.0" y="501.0" type="curve"/>
      <point x="530.0" y="437.0" type="line"/>
      <point x="560.0" y="439.0" type="line"/>
      <point x="555.0" y="532.0" type="line"/>
      <point x="522.0" y="545.0"/>
      <point x="474.0" y="553.0"/>
      <point x="438.0" y="553.0" type="curve" smooth="yes"/>
      <point x="286.0" y="553.0"/>
      <point x="203.0" y="464.0"/>
      <point x="203.0" y="349.0" type="curve" smooth="yes"/>
      <point x="203.0" y="221.0"/>
      <point x="303.0" y="153.0"/>
    </contour>
    <contour>
      <point x="406.0" y="25.0" type="curve" smooth="yes"/>
      <point x="223.0" y="25.0"/>
      <point x="84.0" y="166.0"/>
      <point x="84.0" y="350.0" type="curve" smooth="yes"/>
      <point x="84.0" y="533.0"/>
      <point x="223.0" y="673.0"/>
      <point x="406.0" y="673.0" type="curve" smooth="yes"/>
      <point x="587.0" y="673.0"/>
      <point x="726.0" y="533.0"/>
      <point x="726.0" y="350.0" type="curve" smooth="yes"/>
      <point x="726.0" y="166.0"/>
      <point x="587.0" y="25.0"/>
    </contour>
  </outline>
</glyph>
<glyph name="logicalnot" format="2">
  <advance width="540.0"/>
  <unicode hex="00AC"/>
  <outline>
    <contour>
      <point x="487.0" y="373.0" type="line"/>
      <point x="53.0" y="373.0" type="line"/>
      <point x="53.0" y="319.0" type="line"/>
      <point x="438.0" y="319.0" type="line"/>
      <point x="438.0" y="134.0" type="line"/>
      <point x="487.0" y="134.0" type="line"/>
    </contour>
  </outline>
</glyph>
<glyph name="degree" format="2">
  <advance width="342.0"/>
  <unicode hex="00B0"/>
  <note>
degree
</note>
  <outline>
    <contour>
      <point x="172.0" y="310.0" type="curve" smooth="yes"/>
      <point x="253.0" y="310.0"/>
      <point x="314.0" y="370.0"/>
      <point x="314.0" y="453.0" type="curve" smooth="yes"/>
      <point x="314.0" y="534.0"/>
      <point x="253.0" y="594.0"/>
      <point x="172.0" y="594.0" type="curve" smooth="yes"/>
      <point x="90.0" y="594.0"/>
      <point x="28.0" y="534.0"/>
      <point x="28.0" y="453.0" type="curve" smooth="yes"/>
      <point x="28.0" y="370.0"/>
      <point x="90.0" y="310.0"/>
    </contour>
    <contour>
      <point x="172.0" y="355.0" type="curve" smooth="yes"/>
      <point x="118.0" y="355.0"/>
      <point x="79.0" y="396.0"/>
      <point x="79.0" y="453.0" type="curve" smooth="yes"/>
      <point x="79.0" y="508.0"/>
      <point x="118.0" y="549.0"/>
      <point x="172.0" y="549.0" type="curve" smooth="yes"/>
      <point x="225.0" y="549.0"/>
      <point x="263.0" y="508.0"/>
      <point x="263.0" y="453.0" type="curve" smooth="yes"/>
      <point x="263.0" y="396.0"/>
      <point x="225.0" y="355.0"/>
    </contour>
  </outline>
</glyph>
<glyph name="paragraph" format="2">
  <advance width="512.0"/>
  <unicode hex="00B6"/>
  <note>
paragraph
</note>
  <outline>
    <contour>
      <point x="452.0" y="0.0" type="line"/>
      <point x="454.0" y="32.0" type="line"/>
      <point x="401.0" y="45.0" type="line"/>
      <point x="398.0" y="57.0"/>
      <point x="395.0" y="108.0"/>
      <point x="395.0" y="189.0" type="curve" smooth="yes"/>
      <point x="395.0" y="397.0" type="line" smooth="yes"/>
      <point x="395.0" y="478.0"/>
      <point x="398.0" y="532.0"/>
      <point x="401.0" y="541.0" type="curve"/>
      <point x="461.0" y="555.0" type="line"/>
      <point x="459.0" y="587.0" type="line"/>
      <point x="260.0" y="587.0" type="line" smooth="yes"/>
      <point x="121.0" y="587.0"/>
      <point x="38.0" y="520.0"/>
      <point x="38.0" y="412.0" type="curve" smooth="yes"/>
      <point x="38.0" y="309.0"/>
      <point x="118.0" y="245.0"/>
      <point x="246.0" y="245.0" type="curve" smooth="yes"/>
      <point x="286.0" y="245.0"/>
      <point x="341.0" y="253.0"/>
      <point x="361.0" y="262.0" type="curve"/>
      <point x="361.0" y="306.0" type="line"/>
      <point x="323.0" y="292.0"/>
      <point x="284.0" y="285.0"/>
      <point x="248.0" y="285.0" type="curve" smooth="yes"/>
      <point x="157.0" y="285.0"/>
      <point x="104.0" y="334.0"/>
      <point x="104.0" y="416.0" type="curve" smooth="yes"/>
      <point x="104.0" y="497.0"/>
      <point x="153.0" y="549.0"/>
      <point x="239.0" y="549.0" type="curve" smooth="yes"/>
      <point x="276.0" y="549.0" type="line"/>
      <point x="277.0" y="534.0"/>
      <point x="279.0" y="461.0"/>
      <point x="279.0" y="440.0" type="curve" smooth="yes"/>
      <point x="279.0" y="196.0" type="line" smooth="yes"/>
      <point x="279.0" y="88.0"/>
      <point x="278.0" y="64.0"/>
      <point x="274.0" y="47.0" type="curve"/>
      <point x="193.0" y="34.0" type="line"/>
      <point x="195.0" y="0.0" type="line"/>
    </contour>
    <contour>
      <point x="319.0" y="549.0" type="line"/>
      <point x="358.0" y="549.0" type="line"/>
      <point x="354.0" y="38.0" type="line"/>
      <point x="319.0" y="38.0" type="line"/>
    </contour>
  </outline>
</glyph>
<glyph name="onesuperior" format="2">
  <advance width="400.0"/>
  <unicode hex="00B9"/>
  <note>
uni2081
</note>
  <outline>
    <contour>
      <point x="233.0" y="334.0" type="curve" smooth="yes"/>
      <point x="233.0" y="458.0" type="line" smooth="yes"/>
      <point x="233.0" y="506.0"/>
      <point x="235.0" y="557.0"/>
      <point x="236.0" y="594.0" type="curve"/>
      <point x="97.0" y="540.0" type="line"/>
      <point x="101.0" y="508.0" type="line"/>
      <point x="176.0" y="519.0" type="line"/>
      <point x="177.0" y="507.0"/>
      <point x="178.0" y="479.0"/>
      <point x="178.0" y="445.0" type="curve" smooth="yes"/>
      <point x="178.0" y="334.0" type="line" smooth="yes"/>
      <point x="178.0" y="270.0"/>
      <point x="177.0" y="243.0"/>
      <point x="176.0" y="239.0" type="curve"/>
      <point x="107.0" y="229.0" type="line"/>
      <point x="109.0" y="199.0" type="line"/>
      <point x="303.0" y="199.0" type="line"/>
      <point x="305.0" y="229.0" type="line"/>
      <point x="236.0" y="239.0" type="line"/>
      <point x="235.0" y="244.0"/>
      <point x="233.0" y="270.0"/>
    </contour>
  </outline>
</glyph>
<glyph name="germandbls" format="2">
  <advance width="543.0"/>
  <unicode hex="00DF"/>
  <note>
germandbls
</note>
  <outline>
    <contour>
      <point x="385.0" y="-8.0" type="curve" smooth="yes"/>
      <point x="467.0" y="-8.0"/>
      <point x="524.0" y="43.0"/>
      <point x="524.0" y="110.0" type="curve" smooth="yes"/>
      <point x="524.0" y="239.0"/>
      <point x="311.0" y="235.0"/>
      <point x="311.0" y="360.0" type="curve" smooth="yes"/>
      <point x="311.0" y="438.0"/>
      <point x="410.0" y="500.0"/>
      <point x="409.0" y="585.0" type="curve" smooth="yes"/>
      <point x="409.0" y="652.0"/>
      <point x="364.0" y="698.0"/>
      <point x="278.0" y="698.0" type="curve" smooth="yes"/>
      <point x="170.0" y="698.0"/>
      <point x="100.0" y="615.0"/>
      <point x="100.0" y="491.0" type="curve" smooth="yes"/>
      <point x="100.0" y="380.0" type="line"/>
      <point x="102.0" y="182.0" type="line" smooth="yes"/>
      <point x="103.0" y="99.0"/>
      <point x="100.0" y="72.0"/>
      <point x="99.0" y="45.0" type="curve"/>
      <point x="47.0" y="32.0" type="line"/>
      <point x="49.0" y="0.0" type="line"/>
      <point x="208.0" y="0.0" type="line"/>
      <point x="210.0" y="32.0" type="line"/>
      <point x="158.0" y="45.0" type="line"/>
      <point x="155.0" y="84.0"/>
      <point x="152.0" y="148.0"/>
      <point x="152.0" y="178.0" type="curve" smooth="yes"/>
      <point x="151.0" y="511.0" type="line"/>
      <point x="151.0" y="599.0"/>
      <point x="195.0" y="662.0"/>
      <point x="268.0" y="662.0" type="curve" smooth="yes"/>
      <point x="324.0" y="662.0"/>
      <point x="356.0" y="625.0"/>
      <point x="356.0" y="572.0" type="curve" smooth="yes"/>
      <point x="356.0" y="468.0"/>
      <point x="261.0" y="423.0"/>
      <point x="261.0" y="334.0" type="curve" smooth="yes"/>
      <point x="261.0" y="200.0"/>
      <point x="470.0" y="203.0"/>
      <point x="470.0" y="97.0" type="curve" smooth="yes"/>
      <point x="470.0" y="51.0"/>
      <point x="437.0" y="27.0"/>
      <point x="396.0" y="27.0" type="curve" smooth="yes"/>
      <point x="368.0" y="27.0"/>
      <point x="344.0" y="35.0"/>
      <point x="320.0" y="50.0" type="curve"/>
      <point x="302.0" y="122.0" type="line"/>
      <point x="260.0" y="122.0" type="line"/>
      <point x="262.0" y="22.0" type="line"/>
      <point x="298.0" y="2.0"/>
      <point x="345.0" y="-8.0"/>
    </contour>
    <contour>
      <point x="29.0" y="380.0" type="line"/>
      <point x="131.0" y="380.0" type="line"/>
      <point x="131.0" y="423.0" type="line"/>
      <point x="100.0" y="423.0" type="line"/>
      <point x="29.0" y="406.0" type="line"/>
    </contour>
  </outline>
</glyph>
<glyph name="thorn" format="2">
  <advance width="510.0"/>
  <unicode hex="00FE"/>
  <note>
thorn
</note>
  <outline>
    <contour>
      <point x="24.0" y="-220.0" type="line"/>
      <point x="224.0" y="-220.0" type="line"/>
      <point x="226.0" y="-186.0" type="line"/>
      <point x="144.0" y="-175.0" type="line"/>
      <point x="142.0" y="-154.0"/>
      <point x="140.0" y="-124.0"/>
      <point x="140.0" y="-54.0" type="curve" smooth="yes"/>
      <point x="140.0" y="13.0" type="line"/>
      <point x="168.0" y="1.0"/>
      <point x="213.0" y="-7.0"/>
      <point x="247.0" y="-7.0" type="curve" smooth="yes"/>
      <point x="366.0" y="-7.0"/>
      <point x="465.0" y="86.0"/>
      <point x="465.0" y="220.0" type="curve" smooth="yes"/>
      <point x="465.0" y="338.0"/>
      <point x="390.0" y="433.0"/>
      <point x="274.0" y="433.0" type="curve" smooth="yes"/>
      <point x="222.0" y="433.0"/>
      <point x="180.0" y="412.0"/>
      <point x="142.0" y="365.0" type="curve"/>
      <point x="139.0" y="366.0" type="line"/>
      <point x="141.0" y="515.0"/>
      <point x="142.0" y="594.0"/>
      <point x="144.0" y="680.0" type="curve"/>
      <point x="128.0" y="692.0" type="line"/>
      <point x="10.0" y="655.0" type="line"/>
      <point x="12.0" y="629.0" type="line"/>
      <point x="86.0" y="619.0" type="line"/>
      <point x="87.0" y="605.0"/>
      <point x="90.0" y="454.0"/>
      <point x="89.0" y="364.0" type="curve"/>
      <point x="87.0" y="1.0" type="line" smooth="yes"/>
      <point x="86.0" y="-123.0"/>
      <point x="85.0" y="-162.0"/>
      <point x="84.0" y="-175.0" type="curve"/>
      <point x="22.0" y="-189.0" type="line"/>
    </contour>
    <contour>
      <point x="252.0" y="31.0" type="curve" smooth="yes"/>
      <point x="209.0" y="31.0"/>
      <point x="167.0" y="44.0"/>
      <point x="140.0" y="67.0" type="curve"/>
      <point x="140.0" y="316.0" type="line"/>
      <point x="172.0" y="360.0"/>
      <point x="212.0" y="383.0"/>
      <point x="262.0" y="383.0" type="curve" smooth="yes"/>
      <point x="348.0" y="383.0"/>
      <point x="403.0" y="299.0"/>
      <point x="402.0" y="207.0" type="curve" smooth="yes"/>
      <point x="401.0" y="98.0"/>
      <point x="339.0" y="31.0"/>
    </contour>
  </outline>
</glyph>
<glyph name="Aogonek" format="2">
  <advance width="571.0"/>
  <unicode hex="0104"/>
  <note>
Aogonek
</note>
  <anchor x="277.0" y="0.0" name="bottom"/>
  <anchor x="282.0" y="587.0" name="top"/>
  <outline>
    <contour>
      <point x="480.0" y="-223.0" type="curve" smooth="yes"/>
      <point x="522.0" y="-223.0"/>
      <point x="556.0" y="-204.0"/>
      <point x="581.0" y="-173.0" type="curve"/>
      <point x="561.0" y="-152.0" type="line"/>
      <point x="542.0" y="-172.0"/>
      <point x="520.0" y="-187.0"/>
      <point x="492.0" y="-187.0" type="curve" smooth="yes"/>
      <point x="456.0" y="-187.0"/>
      <point x="431.0" y="-164.0"/>
      <point x="431.0" y="-126.0" type="curve" smooth="yes"/>
      <point x="431.0" y="-72.0"/>
      <point x="485.0" y="-22.0"/>
      <point x="564.0" y="0.0" type="curve"/>
      <point x="566.0" y="32.0" type="line"/>
      <point x="517.0" y="45.0" type="line"/>
      <point x="305.0" y="605.0" type="line"/>
      <point x="259.0" y="576.0" type="line"/>
      <point x="53.0" y="45.0" type="line"/>
      <point x="4.0" y="32.0" type="line"/>
      <point x="6.0" y="0.0" type="line"/>
      <point x="162.0" y="0.0" type="line"/>
      <point x="164.0" y="32.0" type="line"/>
      <point x="104.0" y="45.0" type="line"/>
      <point x="160.0" y="201.0" type="line"/>
      <point x="171.0" y="231.0" type="line"/>
      <point x="286.0" y="544.0" type="line"/>
      <point x="265.0" y="521.0" type="line"/>
      <point x="379.0" y="232.0" type="line"/>
      <point x="390.0" y="203.0" type="line"/>
      <point x="451.0" y="45.0" type="line"/>
      <point x="391.0" y="32.0" type="line"/>
      <point x="393.0" y="0.0" type="line"/>
      <point x="539.0" y="0.0" type="line"/>
      <point x="533.0" y="17.0" type="line"/>
      <point x="429.0" y="-22.0"/>
      <point x="374.0" y="-75.0"/>
      <point x="374.0" y="-137.0" type="curve" smooth="yes"/>
      <point x="374.0" y="-185.0"/>
      <point x="412.0" y="-223.0"/>
    </contour>
    <contour>
      <point x="137.0" y="192.0" type="line"/>
      <point x="199.0" y="193.0"/>
      <point x="247.0" y="194.0"/>
      <point x="282.0" y="194.0" type="curve" smooth="yes"/>
      <point x="318.0" y="194.0"/>
      <point x="369.0" y="193.0"/>
      <point x="425.0" y="192.0" type="curve"/>
      <point x="425.0" y="238.0" type="line"/>
      <point x="401.0" y="237.0"/>
      <point x="350.0" y="235.0"/>
      <point x="282.0" y="235.0" type="curve" smooth="yes"/>
      <point x="213.0" y="235.0"/>
      <point x="162.0" y="237.0"/>
      <point x="137.0" y="238.0" type="curve"/>
    </contour>
  </outline>
</glyph>
<glyph name="Iogonek" format="2">
  <advance width="295.0"/>
  <unicode hex="012E"/>
  <note>
Iogonek
</note>
  <anchor x="148.0" y="587.0" name="top"/>
  <anchor x="25.0" y="587.0" name="topleft"/>
  <outline>
    <contour>
      <point x="178.0" y="189.0" type="curve" smooth="yes"/>
      <point x="178.0" y="397.0" type="line" smooth="yes"/>
      <point x="178.0" y="502.0"/>
      <point x="180.0" y="535.0"/>
      <point x="183.0" y="542.0" type="curve"/>
      <point x="243.0" y="555.0" type="line"/>
      <point x="241.0" y="587.0" type="line"/>
      <point x="56.0" y="587.0" type="line"/>
      <point x="54.0" y="555.0" type="line"/>
      <point x="114.0" y="542.0" type="line"/>
      <point x="116.0" y="533.0"/>
      <point x="117.0" y="489.0"/>
      <point x="117.0" y="397.0" type="curve" smooth="yes"/>
      <point x="117.0" y="189.0" type="line" smooth="yes"/>
      <point x="117.0" y="98.0"/>
      <point x="116.0" y="55.0"/>
      <point x="114.0" y="45.0" type="curve"/>
      <point x="54.0" y="32.0" type="line"/>
      <point x="56.0" y="0.0" type="line"/>
      <point x="186.0" y="0.0" type="line"/>
      <point x="177.0" y="10.0" type="line"/>
      <point x="97.0" y="-5.0"/>
      <point x="43.0" y="-59.0"/>
      <point x="43.0" y="-126.0" type="curve" smooth="yes"/>
      <point x="43.0" y="-181.0"/>
      <point x="89.0" y="-223.0"/>
      <point x="151.0" y="-223.0" type="curve" smooth="yes"/>
      <point x="185.0" y="-223.0"/>
      <point x="220.0" y="-205.0"/>
      <point x="244.0" y="-173.0" type="curve"/>
      <point x="222.0" y="-153.0" type="line"/>
      <point x="200.0" y="-177.0"/>
      <point x="181.0" y="-187.0"/>
      <point x="159.0" y="-187.0" type="curve" smooth="yes"/>
      <point x="120.0" y="-187.0"/>
      <point x="101.0" y="-163.0"/>
      <point x="101.0" y="-118.0" type="curve" smooth="yes"/>
      <point x="101.0" y="-51.0"/>
      <point x="162.0" y="0.0"/>
      <point x="241.0" y="0.0" type="curve"/>
      <point x="243.0" y="32.0" type="line"/>
      <point x="185.0" y="45.0" type="line"/>
      <point x="179.0" y="52.0"/>
      <point x="178.0" y="86.0"/>
    </contour>
  </outline>
</glyph>
<glyph name="eng" format="2">
  <advance width="517.0"/>
  <unicode hex="014B"/>
  <note>
    eng
  </note>
  <outline>
    <contour>
      <point x="431.0" y="266.0" type="line"/>
      <point x="431.0" y="384.0"/>
      <point x="359.0" y="433.0"/>
      <point x="293.0" y="433.0" type="curve" smooth="yes"/>
      <point x="241.0" y="433.0"/>
      <point x="202.0" y="413.0"/>
      <point x="154.0" y="365.0" type="curve"/>
      <point x="151.0" y="366.0" type="line"/>
      <point x="156.0" y="417.0" type="line"/>
      <point x="144.0" y="431.0" type="line"/>
      <point x="31.0" y="399.0" type="line"/>
      <point x="31.0" y="371.0" type="line"/>
      <point x="95.0" y="357.0" type="line"/>
      <point x="98.0" y="338.0"/>
      <point x="103.0" y="279.0"/>
      <point x="102.0" y="234.0" type="curve" smooth="yes"/>
      <point x="101.0" y="155.0" type="line" smooth="yes"/>
      <point x="100.0" y="83.0"/>
      <point x="99.0" y="62.0"/>
      <point x="98.0" y="45.0" type="curve"/>
      <point x="36.0" y="31.0" type="line"/>
      <point x="38.0" y="0.0" type="line"/>
      <point x="222.0" y="0.0" type="line"/>
      <point x="224.0" y="31.0" type="line"/>
      <point x="157.0" y="45.0" type="line"/>
      <point x="155.0" y="62.0"/>
      <point x="153.0" y="96.0"/>
      <point x="153.0" y="165.0" type="curve" smooth="yes"/>
      <point x="153.0" y="318.0" type="line"/>
      <point x="186.0" y="367.0"/>
      <point x="231.0" y="388.0"/>
      <point x="273.0" y="388.0" type="curve" smooth="yes"/>
      <point x="317.0" y="388.0"/>
      <point x="380.0" y="358.0"/>
      <point x="380.0" y="261.0" type="curve" smooth="yes"/>
      <point x="379.0" y="-59.0" type="line"/>
      <point x="379.0" y="-147.0"/>
      <point x="324.6361898933285" y="-195.06678090038054"/>
      <point x="293.3923674423129" y="-195.06678090038054" type="curve" smooth="yes"/>
      <point x="278.78927651412096" y="-195.06678090038054"/>
      <point x="254.6771961443153" y="-161.78531785473365"/>
      <point x="249.0736845090787" y="-134.75261929929002" type="curve"/>
      <point x="246.66813658486103" y="-133.33759110857386"/>
      <point x="238.4228610683765" y="-130.4735740505639"/>
      <point x="232.56879569256398" y="-130.4735740505639" type="curve" smooth="yes"/>
      <point x="206.89452420020757" y="-130.4735740505639"/>
      <point x="194.0573884540297" y="-146.84262016076968"/>
      <point x="194.0573884540297" y="-164.16256521513696" type="curve" smooth="yes"/>
      <point x="194.0573884540297" y="-202.67397245367135"/>
      <point x="239.0" y="-228.0"/>
      <point x="287.0" y="-228.0" type="curve" smooth="yes"/>
      <point x="376.0" y="-228.0"/>
      <point x="431.0" y="-149.0"/>
      <point x="431.0" y="-24.0" type="curve"/>
    </contour>
  </outline>
</glyph>
<glyph name="Schwa" format="2">
  <advance width="645.0"/>
  <unicode hex="018F"/>
  <anchor x="324.0" y="0.0" name="bottom"/>
  <anchor x="324.0" y="587.0" name="top"/>
  <outline>
    <contour>
      <point x="313.0" y="596.0" type="curve" smooth="yes"/>
      <point x="208.0" y="596.0"/>
      <point x="107.0" y="533.0"/>
      <point x="63.0" y="452.0" type="curve"/>
      <point x="95.0" y="429.0" type="line"/>
      <point x="143.0" y="489.0"/>
      <point x="209.0" y="523.0"/>
      <point x="291.0" y="523.0" type="curve" smooth="yes"/>
      <point x="427.0" y="523.0"/>
      <point x="515.0" y="425.0"/>
      <point x="515.0" y="263.0" type="curve" smooth="yes"/>
      <point x="515.0" y="248.0" type="line" smooth="yes"/>
      <point x="515.0" y="117.0"/>
      <point x="442.0" y="35.0"/>
      <point x="325.0" y="35.0" type="curve" smooth="yes"/>
      <point x="213.0" y="35.0"/>
      <point x="147.0" y="105.0"/>
      <point x="147.0" y="214.0" type="curve" smooth="yes"/>
      <point x="147.0" y="241.0" type="line"/>
      <point x="128.0" y="232.0" type="line"/>
      <point x="526.0" y="232.0" type="line"/>
      <point x="526.0" y="282.0" type="line"/>
      <point x="59.0" y="282.0" type="line"/>
      <point x="59.0" y="261.0" type="line" smooth="yes"/>
      <point x="59.0" y="96.0"/>
      <point x="157.0" y="-8.0"/>
      <point x="319.0" y="-9.0" type="curve" smooth="yes"/>
      <point x="479.0" y="-9.0"/>
      <point x="590.0" y="118.0"/>
      <point x="590.0" y="308.0" type="curve" smooth="yes"/>
      <point x="590.0" y="480.0"/>
      <point x="479.0" y="596.0"/>
    </contour>
  </outline>
</glyph>
<glyph name="florin" format="2">
  <advance width="362.0"/>
  <unicode hex="0192"/>
  <outline>
    <contour>
      <point x="74.0" y="-227.0" type="curve" smooth="yes"/>
      <point x="133.0" y="-227.0"/>
      <point x="195.0" y="-154.0"/>
      <point x="195.0" y="47.0" type="curve" smooth="yes"/>
      <point x="195.0" y="380.0" type="line"/>
      <point x="193.0" y="423.0" type="line"/>
      <point x="193.0" y="515.0" type="line" smooth="yes"/>
      <point x="193.0" y="626.0"/>
      <point x="229.0" y="664.0"/>
      <point x="269.0" y="671.0" type="curve"/>
      <point x="306.0" y="637.0" type="line" smooth="yes"/>
      <point x="321.0" y="623.0"/>
      <point x="331.0" y="617.0"/>
      <point x="348.0" y="617.0" type="curve" smooth="yes"/>
      <point x="363.0" y="617.0"/>
      <point x="374.0" y="628.0"/>
      <point x="374.0" y="642.0" type="curve" smooth="yes"/>
      <point x="374.0" y="671.0"/>
      <point x="338.0" y="698.0"/>
      <point x="288.0" y="698.0" type="curve" smooth="yes"/>
      <point x="205.0" y="698.0"/>
      <point x="144.0" y="625.0"/>
      <point x="144.0" y="494.0" type="curve" smooth="yes"/>
      <point x="144.0" y="-5.0" type="line"/>
      <point x="144.0" y="-155.0"/>
      <point x="108.0" y="-193.0"/>
      <point x="93.0" y="-200.0" type="curve"/>
      <point x="56.0" y="-166.0" type="line" smooth="yes"/>
      <point x="41.0" y="-152.0"/>
      <point x="31.0" y="-146.0"/>
      <point x="13.0" y="-146.0" type="curve" smooth="yes"/>
      <point x="-1.0" y="-146.0"/>
      <point x="-12.0" y="-157.0"/>
      <point x="-12.0" y="-171.0" type="curve" smooth="yes"/>
      <point x="-12.0" y="-200.0"/>
      <point x="24.0" y="-227.0"/>
    </contour>
    <contour>
      <point x="73.0" y="380.0" type="line"/>
      <point x="309.0" y="380.0" type="line"/>
      <point x="309.0" y="423.0" type="line"/>
      <point x="226.0" y="423.0" type="line"/>
      <point x="144.0" y="423.0" type="line"/>
      <point x="119.0" y="416.0"/>
      <point x="98.0" y="410.0"/>
      <point x="73.0" y="406.0" type="curve"/>
    </contour>
  </outline>
</glyph>
<glyph name="doubleprimemod" format="2">
  <advance width="600.0"/>
  <unicode hex="02BA"/>
  <note>
uni030B
</note>
  <anchor x="300.0" y="425.0" name="_top"/>
  <anchor x="300.0" y="687.0" name="top"/>
  <outline>
    <contour>
      <point x="373.0" y="482.0" type="line"/>
      <point x="480.0" y="664.0" type="line"/>
      <point x="419.0" y="677.0" type="line"/>
      <point x="349.0" y="492.0" type="line"/>
    </contour>
    <contour>
      <point x="251.0" y="482.0" type="line"/>
      <point x="358.0" y="664.0" type="line"/>
      <point x="297.0" y="677.0" type="line"/>
      <point x="227.0" y="492.0" type="line"/>
    </contour>
  </outline>
</glyph>
<glyph name="secondtonechinese" format="2">
  <advance width="600.0"/>
  <unicode hex="02CA"/>
  <note>
acutecomb
</note>
  <anchor x="300.0" y="425.0" name="_top"/>
  <anchor x="300.0" y="687.0" name="top"/>
  <outline>
    <contour>
      <point x="315.0" y="482.0" type="line"/>
      <point x="446.0" y="654.0" type="line"/>
      <point x="384.0" y="677.0" type="line"/>
      <point x="285.0" y="492.0" type="line"/>
    </contour>
  </outline>
</glyph>
<glyph name="macroncomb" format="2">
  <unicode hex="0304"/>
  <note>
uni0304
</note>
  <anchor x="300.0" y="425.0" name="_top"/>
  <anchor x="300.0" y="687.0" name="top"/>
  <outline>
    <contour>
      <point x="162.0" y="602.0" type="line"/>
      <point x="162.0" y="555.0" type="line"/>
      <point x="438.0" y="555.0" type="line"/>
      <point x="438.0" y="602.0" type="line"/>
    </contour>
  </outline>
</glyph>
<glyph name="caroncomb" format="2">
  <unicode hex="030C"/>
  <note>
uni030C
</note>
  <anchor x="300.0" y="425.0" name="_top"/>
  <anchor x="300.0" y="687.0" name="top"/>
  <outline>
    <contour>
      <point x="430.0" y="666.0" type="line"/>
      <point x="399.0" y="677.0" type="line"/>
      <point x="274.0" y="520.0" type="line"/>
      <point x="332.0" y="520.0" type="line"/>
      <point x="201.0" y="677.0" type="line"/>
      <point x="170.0" y="666.0" type="line"/>
      <point x="271.0" y="497.0" type="line"/>
      <point x="329.0" y="497.0" type="line"/>
    </contour>
  </outline>
</glyph>
<glyph name="breveinvertedcomb" format="2">
  <unicode hex="0311"/>
  <anchor x="300.0" y="425.0" name="_top"/>
  <anchor x="300.0" y="687.0" name="top"/>
  <outline>
    <contour>
      <point x="204.0" y="482.0" type="line"/>
      <point x="211.0" y="564.0"/>
      <point x="246.0" y="607.0"/>
      <point x="299.0" y="607.0" type="curve" smooth="yes"/>
      <point x="350.0" y="607.0"/>
      <point x="385.0" y="564.0"/>
      <point x="394.0" y="482.0" type="curve"/>
      <point x="426.0" y="492.0" type="line"/>
      <point x="424.0" y="603.0"/>
      <point x="378.0" y="663.0"/>
      <point x="302.0" y="663.0" type="curve" smooth="yes"/>
      <point x="226.0" y="663.0"/>
      <point x="176.0" y="603.0"/>
      <point x="174.0" y="492.0" type="curve"/>
    </contour>
  </outline>
</glyph>
<glyph name="commaturnedabovecomb" format="2">
  <unicode hex="0312"/>
  <note>
uni02BB
</note>
  <anchor x="300.0" y="425.0" name="_top"/>
  <anchor x="300.0" y="671.0" name="top"/>
  <outline>
    <contour>
      <point x="360.0" y="672.0" type="line"/>
      <point x="302.0" y="651.0"/>
      <point x="258.0" y="607.0"/>
      <point x="258.0" y="552.0" type="curve" smooth="yes"/>
      <point x="258.0" y="520.0"/>
      <point x="274.0" y="494.0"/>
      <point x="307.0" y="494.0" type="curve" smooth="yes"/>
      <point x="327.0" y="494.0"/>
      <point x="342.0" y="508.0"/>
      <point x="342.0" y="527.0" type="curve" smooth="yes"/>
      <point x="342.0" y="562.0"/>
      <point x="308.0" y="559.0"/>
      <point x="308.0" y="591.0" type="curve" smooth="yes"/>
      <point x="308.0" y="614.0"/>
      <point x="335.0" y="638.0"/>
      <point x="371.0" y="650.0" type="curve"/>
    </contour>
  </outline>
</glyph>
<glyph name="horncomb" format="2">
  <unicode hex="031B"/>
  <anchor x="374.0" y="417.0" name="_topright"/>
  <outline>
    <contour>
      <point x="374.0" y="417.0" type="curve" smooth="yes"/>
      <point x="362.0" y="417.0" type="line"/>
      <point x="362.0" y="383.0" type="line"/>
      <point x="362.0" y="383.0" type="line" smooth="yes"/>
      <point x="462.0" y="383.0"/>
      <point x="495.0" y="431.0"/>
      <point x="495.0" y="478.0" type="curve" smooth="yes"/>
      <point x="495.0" y="512.0"/>
      <point x="456.0" y="522.0"/>
      <point x="423.0" y="512.0" type="curve"/>
      <point x="423.0" y="479.0" type="line" smooth="yes"/>
      <point x="421.0" y="437.0"/>
      <point x="410.0" y="417.0"/>
    </contour>
  </outline>
</glyph>
<glyph name="cedillacomb" format="2">
  <unicode hex="0327"/>
  <note>
uni0327
</note>
  <anchor x="300.0" y="0.0" name="_bottom"/>
  <outline>
    <contour>
      <point x="273.0" y="-223.0" type="curve" smooth="yes"/>
      <point x="339.0" y="-223.0"/>
      <point x="389.0" y="-184.0"/>
      <point x="389.0" y="-133.0" type="curve" smooth="yes"/>
      <point x="389.0" y="-84.0"/>
      <point x="344.0" y="-55.0"/>
      <point x="280.0" y="-55.0" type="curve"/>
      <point x="272.0" y="-87.0" type="line"/>
      <point x="342.0" y="13.0" type="line"/>
      <point x="295.0" y="13.0" type="line"/>
      <point x="237.0" y="-88.0" type="line"/>
      <point x="252.0" y="-107.0" type="line"/>
      <point x="301.0" y="-100.0"/>
      <point x="330.0" y="-119.0"/>
      <point x="330.0" y="-146.0" type="curve" smooth="yes"/>
      <point x="330.0" y="-173.0"/>
      <point x="307.0" y="-186.0"/>
      <point x="281.0" y="-186.0" type="curve" smooth="yes"/>
      <point x="252.0" y="-186.0"/>
      <point x="225.0" y="-176.0"/>
      <point x="203.0" y="-162.0" type="curve"/>
      <point x="185.0" y="-199.0" type="line"/>
      <point x="211.0" y="-214.0"/>
      <point x="242.0" y="-223.0"/>
    </contour>
  </outline>
</glyph>
<glyph name="slashlongcomb" format="2">
  <unicode hex="0338"/>
  <anchor x="300.0" y="213.0" name="_center"/>
  <outline>
    <contour>
      <point x="149.0" y="-61.0" type="line"/>
      <point x="485.0" y="465.0" type="line"/>
      <point x="451.0" y="487.0" type="line"/>
      <point x="115.0" y="-40.0" type="line"/>
    </contour>
  </outline>
</glyph>
<glyph name="Delta" format="2">
  <advance width="632.0"/>
  <unicode hex="0394"/>
  <note>
uni2206
</note>
  <outline>
    <contour>
      <point x="10.0" y="0.0" type="line"/>
      <point x="622.0" y="0.0" type="line"/>
      <point x="318.0" y="607.0" type="line"/>
    </contour>
    <contour>
      <point x="78.0" y="19.0" type="line"/>
      <point x="334.0" y="522.0" type="line"/>
      <point x="290.0" y="482.0" type="line"/>
      <point x="526.0" y="19.0" type="line"/>
      <point x="563.0" y="53.0" type="line"/>
      <point x="41.0" y="53.0" type="line"/>
    </contour>
  </outline>
</glyph>
<glyph name="pi" format="2">
  <advance width="494.721234343647"/>
  <unicode hex="03C0"/>
  <outline>
    <contour>
      <point x="382.22963110950104" y="-5.8084139877764756" type="curve" smooth="yes"/>
      <point x="424.0022186315832" y="-5.8084139877764756"/>
      <point x="450.77663360585393" y="30.464343798347045"/>
      <point x="461.68472859537155" y="57.23875877261776" type="curve"/>
      <point x="438.87689361728917" y="75.0883687554649" type="line"/>
      <point x="430.9437336249125" y="61.20533876880609"/>
      <point x="414.4007557777336" y="48.313953781194186"/>
      <point x="393.2612236611242" y="48.313953781194186" type="curve" smooth="yes"/>
      <point x="357.2612236611242" y="48.313953781194186"/>
      <point x="347.86189439734306" y="85.99646381306411"/>
      <point x="347.8601708657138" y="129.62884370305346" type="curve" smooth="yes"/>
      <point x="347.8495708292364" y="397.97600402534795" type="line"/>
      <point x="292.0862208226681" y="405.3673238182587" type="line"/>
      <point x="291.2095221467282" y="112.17423805031808" type="line" smooth="yes"/>
      <point x="290.9889977754215" y="38.42458758902622"/>
      <point x="319.22963110948825" y="-5.8084139877764756"/>
    </contour>
    <contour>
      <point x="121.43495503730901" y="-5.772333823073723" type="curve" smooth="yes"/>
      <point x="151.47117301186563" y="-5.772333823073723"/>
      <point x="187.45290110490757" y="3.8562138499852097"/>
      <point x="186.99022398857483" y="133.71442109912755" type="curve" smooth="yes"/>
      <point x="185.9922599358324" y="413.81001738753594" type="line"/>
      <point x="143.67915966725582" y="398.19771451674296" type="line" smooth="yes"/>
      <point x="145.6597889800214" y="145.0814495115444" type="line" smooth="yes"/>
      <point x="146.02805880887388" y="98.01808283689863"/>
      <point x="115.04762805565088" y="75.73206012731202"/>
      <point x="85.96668531509135" y="69.21182641993437" type="curve"/>
      <point x="81.58296658537915" y="61.24142872954849"/>
      <point x="79.19184727826337" y="50.48139184752722"/>
      <point x="79.19184727826337" y="37.72875554290977" type="curve" smooth="yes"/>
      <point x="79.19184727826337" y="16.60720166338683"/>
      <point x="93.14004323643871" y="-5.772333823073723"/>
    </contour>
    <contour>
      <point x="68.12066137357283" y="342.1978656987817" type="line"/>
      <point x="96.6800373461283" y="365.0453664768261"/>
      <point x="125.23941331868377" y="372.1852104699649"/>
      <point x="155.46475288963825" y="372.1852104699649" type="curve"/>
      <point x="155.46475288963825" y="372.1852104699649"/>
      <point x="449.2477790917537" y="370.2472450585874"/>
      <point x="449.2477790917537" y="370.2472450585874" type="curve"/>
      <point x="462.47804459460895" y="415.38787759511547" type="line"/>
      <point x="450.25914088844" y="429.77343252672426" type="line"/>
      <point x="377.3618488430693" y="424.4779567530468" type="line"/>
      <point x="149.51488289535587" y="424.7869101978688" type="line" smooth="yes"/>
      <point x="82.40046735847162" y="424.87590125638343"/>
      <point x="55.268942185922924" y="390.7488048521259"/>
      <point x="39.56128540101736" y="359.333491282315" type="curve"/>
    </contour>
  </outline>
</glyph>
<glyph name="quoteright" format="2">
  <advance width="219.0"/>
  <unicode hex="2019"/>
  <note>
quoteright
</note>
  <outline>
    <contour>
      <point x="45.0" y="457.0" type="line"/>
      <point x="104.0" y="479.0"/>
      <point x="161.0" y="560.0"/>
      <point x="161.0" y="626.0" type="curve" smooth="yes"/>
      <point x="161.0" y="672.0"/>
      <point x="137.0" y="698.0"/>
      <point x="109.0" y="698.0" type="curve" smooth="yes"/>
      <point x="83.0" y="698.0"/>
      <point x="66.0" y="679.0"/>
      <point x="66.0" y="658.0" type="curve" smooth="yes"/>
      <point x="66.0" y="616.0"/>
      <point x="104.0" y="618.0"/>
      <point x="104.0" y="576.0" type="curve" smooth="yes"/>
      <point x="104.0" y="531.0"/>
      <point x="73.0" y="500.0"/>
      <point x="33.0" y="480.0" type="curve"/>
    </contour>
  </outline>
</glyph>
<glyph name="minute" format="2">
  <advance width="209.0"/>
  <unicode hex="2032"/>
  <note>
quotesingle
</note>
  <outline>
    <contour>
      <point x="104.0" y="594.0" type="curve" smooth="yes"/>
      <point x="79.0" y="594.0"/>
      <point x="59.0" y="578.0"/>
      <point x="59.0" y="532.0" type="curve" smooth="yes"/>
      <point x="59.0" y="498.0"/>
      <point x="81.0" y="418.0"/>
      <point x="90.0" y="373.0" type="curve"/>
      <point x="119.0" y="373.0" type="line"/>
      <point x="128.0" y="418.0"/>
      <point x="150.0" y="498.0"/>
      <point x="150.0" y="532.0" type="curve" smooth="yes"/>
      <point x="150.0" y="578.0"/>
      <point x="131.0" y="594.0"/>
    </contour>
  </outline>
</glyph>
<glyph name="second" format="2">
  <advance width="364.0"/>
  <unicode hex="2033"/>
  <note>
quotedbl
</note>
  <outline>
    <contour>
      <point x="104.0" y="594.0" type="curve" smooth="yes"/>
      <point x="79.0" y="594.0"/>
      <point x="59.0" y="578.0"/>
      <point x="59.0" y="532.0" type="curve" smooth="yes"/>
      <point x="59.0" y="498.0"/>
      <point x="81.0" y="418.0"/>
      <point x="90.0" y="373.0" type="curve"/>
      <point x="119.0" y="373.0" type="line"/>
      <point x="128.0" y="418.0"/>
      <point x="150.0" y="498.0"/>
      <point x="150.0" y="532.0" type="curve" smooth="yes"/>
      <point x="150.0" y="578.0"/>
      <point x="131.0" y="594.0"/>
    </contour>
    <contour>
      <point x="259.0" y="594.0" type="curve" smooth="yes"/>
      <point x="234.0" y="594.0"/>
      <point x="214.0" y="578.0"/>
      <point x="214.0" y="532.0" type="curve" smooth="yes"/>
      <point x="214.0" y="498.0"/>
      <point x="235.0" y="418.0"/>
      <point x="245.0" y="373.0" type="curve"/>
      <point x="274.0" y="373.0" type="line"/>
      <point x="283.0" y="418.0"/>
      <point x="305.0" y="498.0"/>
      <point x="305.0" y="532.0" type="curve" smooth="yes"/>
      <point x="305.0" y="578.0"/>
      <point x="285.0" y="594.0"/>
    </contour>
  </outline>
</glyph>
<glyph name="foursuperior" format="2">
  <advance width="400.0"/>
  <unicode hex="2074"/>
  <note>
uni2084
</note>
  <outline>
    <contour>
      <point x="288.0" y="239.0" type="line"/>
      <point x="288.0" y="489.0" type="line"/>
      <point x="288.0" y="523.0"/>
      <point x="289.0" y="558.0"/>
      <point x="290.0" y="590.0" type="curve"/>
      <point x="263.0" y="590.0" type="line"/>
      <point x="47.0" y="326.0" type="line"/>
      <point x="52.0" y="301.0" type="line"/>
      <point x="352.0" y="301.0" type="line"/>
      <point x="352.0" y="348.0" type="line"/>
      <point x="101.0" y="348.0" type="line"/>
      <point x="97.0" y="333.0" type="line"/>
      <point x="246.0" y="515.0" type="line"/>
      <point x="234.0" y="520.0" type="line"/>
      <point x="234.0" y="239.0" type="line"/>
      <point x="177.0" y="229.0" type="line"/>
      <point x="178.0" y="199.0" type="line"/>
      <point x="333.0" y="199.0" type="line"/>
      <point x="335.0" y="229.0" type="line"/>
    </contour>
  </outline>
</glyph>
<glyph name="fivesuperior" format="2">
  <advance width="400.0"/>
  <unicode hex="2075"/>
  <note>
uni2085
</note>
  <outline>
    <contour>
      <point x="171.0" y="193.0" type="curve" smooth="yes"/>
      <point x="254.0" y="193.0"/>
      <point x="340.0" y="243.0"/>
      <point x="340.0" y="317.0" type="curve" smooth="yes"/>
      <point x="340.0" y="389.0"/>
      <point x="279.0" y="428.0"/>
      <point x="125.0" y="444.0" type="curve"/>
      <point x="142.0" y="417.0" type="line"/>
      <point x="156.0" y="528.0" type="line"/>
      <point x="312.0" y="528.0" type="line"/>
      <point x="319.0" y="587.0" type="line"/>
      <point x="128.0" y="587.0" type="line"/>
      <point x="102.0" y="387.0" type="line"/>
      <point x="237.0" y="375.0"/>
      <point x="282.0" y="353.0"/>
      <point x="282.0" y="306.0" type="curve" smooth="yes"/>
      <point x="282.0" y="255.0"/>
      <point x="227.0" y="219.0"/>
      <point x="155.0" y="227.0" type="curve"/>
      <point x="181.0" y="219.0" type="line"/>
      <point x="137.0" y="255.0" type="line" smooth="yes"/>
      <point x="121.0" y="268.0"/>
      <point x="110.0" y="274.0"/>
      <point x="97.0" y="274.0" type="curve" smooth="yes"/>
      <point x="82.0" y="274.0"/>
      <point x="69.0" y="263.0"/>
      <point x="69.0" y="245.0" type="curve" smooth="yes"/>
      <point x="69.0" y="215.0"/>
      <point x="112.0" y="193.0"/>
    </contour>
  </outline>
</glyph>
<glyph name="eightsuperior" format="2">
  <advance width="400.0"/>
  <unicode hex="2078"/>
  <note>
uni2088
</note>
  <outline>
    <contour>
      <point x="196.0" y="193.0" type="curve" smooth="yes"/>
      <point x="285.0" y="193.0"/>
      <point x="347.0" y="240.0"/>
      <point x="347.0" y="306.0" type="curve" smooth="yes"/>
      <point x="347.0" y="430.0"/>
      <point x="132.0" y="407.0"/>
      <point x="132.0" y="507.0" type="curve" smooth="yes"/>
      <point x="132.0" y="537.0"/>
      <point x="158.0" y="560.0"/>
      <point x="200.0" y="560.0" type="curve" smooth="yes"/>
      <point x="247.0" y="560.0"/>
      <point x="273.0" y="531.0"/>
      <point x="273.0" y="486.0" type="curve" smooth="yes"/>
      <point x="273.0" y="449.0"/>
      <point x="260.0" y="424.0"/>
      <point x="229.0" y="392.0" type="curve"/>
      <point x="231.0" y="387.0" type="line"/>
      <point x="290.0" y="400.0"/>
      <point x="330.0" y="444.0"/>
      <point x="330.0" y="497.0" type="curve" smooth="yes"/>
      <point x="330.0" y="551.0"/>
      <point x="284.0" y="593.0"/>
      <point x="206.0" y="593.0" type="curve" smooth="yes"/>
      <point x="124.0" y="593.0"/>
      <point x="71.0" y="549.0"/>
      <point x="71.0" y="487.0" type="curve" smooth="yes"/>
      <point x="71.0" y="353.0"/>
      <point x="283.0" y="381.0"/>
      <point x="283.0" y="283.0" type="curve" smooth="yes"/>
      <point x="283.0" y="251.0"/>
      <point x="252.0" y="230.0"/>
      <point x="206.0" y="230.0" type="curve" smooth="yes"/>
      <point x="150.0" y="230.0"/>
      <point x="115.0" y="255.0"/>
      <point x="115.0" y="304.0" type="curve" smooth="yes"/>
      <point x="115.0" y="334.0"/>
      <point x="135.0" y="361.0"/>
      <point x="179.0" y="392.0" type="curve"/>
      <point x="162.0" y="399.0" type="line"/>
      <point x="93.0" y="383.0"/>
      <point x="53.0" y="348.0"/>
      <point x="53.0" y="300.0" type="curve" smooth="yes"/>
      <point x="53.0" y="235.0"/>
      <point x="112.0" y="193.0"/>
    </contour>
  </outline>
</glyph>
<glyph name="zeroinferior" format="2">
  <advance width="400.0"/>
  <unicode hex="2080"/>
  <note>
uni2080
</note>
  <outline>
    <contour>
      <point x="203.0" y="-6.0" type="curve" smooth="yes"/>
      <point x="292.0" y="-6.0"/>
      <point x="358.0" y="81.0"/>
      <point x="358.0" y="198.0" type="curve" smooth="yes"/>
      <point x="358.0" y="317.0"/>
      <point x="297.0" y="394.0"/>
      <point x="205.0" y="394.0" type="curve" smooth="yes"/>
      <point x="109.0" y="394.0"/>
      <point x="43.0" y="312.0"/>
      <point x="43.0" y="192.0" type="curve" smooth="yes"/>
      <point x="43.0" y="74.0"/>
      <point x="105.0" y="-6.0"/>
    </contour>
    <contour>
      <point x="208.0" y="31.0" type="curve" smooth="yes"/>
      <point x="148.0" y="31.0"/>
      <point x="110.0" y="97.0"/>
      <point x="110.0" y="206.0" type="curve" smooth="yes"/>
      <point x="110.0" y="303.0"/>
      <point x="146.0" y="359.0"/>
      <point x="199.0" y="359.0" type="curve" smooth="yes"/>
      <point x="255.0" y="359.0"/>
      <point x="292.0" y="290.0"/>
      <point x="292.0" y="182.0" type="curve" smooth="yes"/>
      <point x="292.0" y="90.0"/>
      <point x="264.0" y="31.0"/>
    </contour>
  </outline>
</glyph>
<glyph name="twoinferior" format="2">
  <advance width="400.0"/>
  <unicode hex="2082"/>
  <note>
uni2082
</note>
  <outline>
    <contour>
      <point x="59.0" y="25.0" type="curve"/>
      <point x="63.0" y="-2.0" type="line"/>
      <point x="79.0" y="-1.0"/>
      <point x="97.0" y="0.0"/>
      <point x="114.0" y="0.0" type="curve" smooth="yes"/>
      <point x="266.0" y="0.0" type="line" smooth="yes"/>
      <point x="295.0" y="0.0"/>
      <point x="317.0" y="-1.0"/>
      <point x="338.0" y="-3.0" type="curve"/>
      <point x="356.0" y="109.0" type="line"/>
      <point x="326.0" y="111.0" type="line"/>
      <point x="303.0" y="59.0" type="line"/>
      <point x="297.0" y="57.0"/>
      <point x="287.0" y="56.0"/>
      <point x="278.0" y="56.0" type="curve" smooth="yes"/>
      <point x="120.0" y="56.0" type="line"/>
      <point x="118.0" y="46.0" type="line"/>
      <point x="252.0" y="125.0"/>
      <point x="316.0" y="205.0"/>
      <point x="316.0" y="277.0" type="curve" smooth="yes"/>
      <point x="316.0" y="347.0"/>
      <point x="260.0" y="394.0"/>
      <point x="181.0" y="394.0" type="curve" smooth="yes"/>
      <point x="119.0" y="394.0"/>
      <point x="72.0" y="358.0"/>
      <point x="45.0" y="306.0" type="curve"/>
      <point x="65.0" y="289.0" type="line"/>
      <point x="90.0" y="323.0"/>
      <point x="125.0" y="341.0"/>
      <point x="165.0" y="341.0" type="curve" smooth="yes"/>
      <point x="223.0" y="341.0"/>
      <point x="252.0" y="315.0"/>
      <point x="252.0" y="266.0" type="curve" smooth="yes"/>
      <point x="252.0" y="195.0"/>
      <point x="201.0" y="130.0"/>
    </contour>
  </outline>
</glyph>
<glyph name="threeinferior" format="2">
  <advance width="400.0"/>
  <unicode hex="2083"/>
  <note>
uni2083
</note>
  <outline>
    <contour>
      <point x="211.0" y="215.0" type="curve"/>
      <point x="203.0" y="205.0" type="line"/>
      <point x="276.0" y="225.0"/>
      <point x="314.0" y="263.0"/>
      <point x="314.0" y="308.0" type="curve" smooth="yes"/>
      <point x="314.0" y="360.0"/>
      <point x="272.0" y="394.0"/>
      <point x="204.0" y="394.0" type="curve" smooth="yes"/>
      <point x="141.0" y="394.0"/>
      <point x="91.0" y="361.0"/>
      <point x="68.0" y="318.0" type="curve"/>
      <point x="88.0" y="301.0" type="line"/>
      <point x="110.0" y="323.0"/>
      <point x="139.0" y="341.0"/>
      <point x="183.0" y="341.0" type="curve" smooth="yes"/>
      <point x="223.0" y="341.0"/>
      <point x="253.0" y="322.0"/>
      <point x="253.0" y="287.0" type="curve" smooth="yes"/>
      <point x="253.0" y="244.0"/>
      <point x="217.0" y="217.0"/>
      <point x="134.0" y="212.0" type="curve"/>
      <point x="139.0" y="178.0" type="line"/>
      <point x="157.0" y="181.0"/>
      <point x="171.0" y="182.0"/>
      <point x="183.0" y="182.0" type="curve" smooth="yes"/>
      <point x="244.0" y="182.0"/>
      <point x="282.0" y="153.0"/>
      <point x="282.0" y="107.0" type="curve" smooth="yes"/>
      <point x="282.0" y="56.0"/>
      <point x="227.0" y="20.0"/>
      <point x="155.0" y="28.0" type="curve"/>
      <point x="181.0" y="20.0" type="line"/>
      <point x="137.0" y="56.0" type="line" smooth="yes"/>
      <point x="120.0" y="72.0"/>
      <point x="112.0" y="75.0"/>
      <point x="97.0" y="75.0" type="curve" smooth="yes"/>
      <point x="81.0" y="75.0"/>
      <point x="69.0" y="63.0"/>
      <point x="69.0" y="46.0" type="curve" smooth="yes"/>
      <point x="69.0" y="16.0"/>
      <point x="112.0" y="-6.0"/>
      <point x="171.0" y="-6.0" type="curve" smooth="yes"/>
      <point x="263.0" y="-6.0"/>
      <point x="340.0" y="50.0"/>
      <point x="340.0" y="117.0" type="curve" smooth="yes"/>
      <point x="340.0" y="174.0"/>
      <point x="291.0" y="212.0"/>
    </contour>
  </outline>
</glyph>
<glyph name="eightinferior" format="2">
  <advance width="400.0"/>
  <unicode hex="2088"/>
  <note>
uni2088
</note>
  <outline>
    <contour>
      <point x="196.0" y="-6.0" type="curve" smooth="yes"/>
      <point x="285.0" y="-6.0"/>
      <point x="347.0" y="41.0"/>
      <point x="347.0" y="107.0" type="curve" smooth="yes"/>
      <point x="347.0" y="231.0"/>
      <point x="132.0" y="208.0"/>
      <point x="132.0" y="308.0" type="curve" smooth="yes"/>
      <point x="132.0" y="338.0"/>
      <point x="158.0" y="361.0"/>
      <point x="200.0" y="361.0" type="curve" smooth="yes"/>
      <point x="247.0" y="361.0"/>
      <point x="273.0" y="332.0"/>
      <point x="273.0" y="287.0" type="curve" smooth="yes"/>
      <point x="273.0" y="250.0"/>
      <point x="260.0" y="225.0"/>
      <point x="229.0" y="193.0" type="curve"/>
      <point x="231.0" y="188.0" type="line"/>
      <point x="290.0" y="201.0"/>
      <point x="330.0" y="245.0"/>
      <point x="330.0" y="298.0" type="curve" smooth="yes"/>
      <point x="330.0" y="352.0"/>
      <point x="284.0" y="394.0"/>
      <point x="206.0" y="394.0" type="curve" smooth="yes"/>
      <point x="124.0" y="394.0"/>
      <point x="71.0" y="350.0"/>
      <point x="71.0" y="288.0" type="curve" smooth="yes"/>
      <point x="71.0" y="154.0"/>
      <point x="283.0" y="182.0"/>
      <point x="283.0" y="84.0" type="curve" smooth="yes"/>
      <point x="283.0" y="52.0"/>
      <point x="252.0" y="31.0"/>
      <point x="206.0" y="31.0" type="curve" smooth="yes"/>
      <point x="150.0" y="31.0"/>
      <point x="115.0" y="56.0"/>
      <point x="115.0" y="105.0" type="curve" smooth="yes"/>
      <point x="115.0" y="135.0"/>
      <point x="135.0" y="162.0"/>
      <point x="179.0" y="193.0" type="curve"/>
      <point x="162.0" y="200.0" type="line"/>
      <point x="93.0" y="184.0"/>
      <point x="53.0" y="149.0"/>
      <point x="53.0" y="101.0" type="curve" smooth="yes"/>
      <point x="53.0" y="36.0"/>
      <point x="112.0" y="-6.0"/>
    </contour>
  </outline>
</glyph>
<glyph name="nineinferior" format="2">
  <advance width="400.0"/>
  <unicode hex="2089"/>
  <note>
uni2089
</note>
  <outline>
    <contour>
      <point x="285.0" y="222.0" type="curve"/>
      <point x="287.0" y="251.0" type="line"/>
      <point x="266.0" y="223.0"/>
      <point x="234.0" y="205.0"/>
      <point x="197.0" y="205.0" type="curve" smooth="yes"/>
      <point x="150.0" y="205.0"/>
      <point x="119.0" y="233.0"/>
      <point x="119.0" y="280.0" type="curve" smooth="yes"/>
      <point x="119.0" y="330.0"/>
      <point x="150.0" y="359.0"/>
      <point x="192.0" y="359.0" type="curve" smooth="yes"/>
      <point x="241.0" y="359.0"/>
      <point x="277.0" y="317.0"/>
      <point x="277.0" y="246.0" type="curve" smooth="yes"/>
      <point x="277.0" y="122.0"/>
      <point x="208.0" y="40.0"/>
      <point x="80.0" y="21.0" type="curve"/>
      <point x="94.0" y="-12.0" type="line"/>
      <point x="241.0" y="2.0"/>
      <point x="343.0" y="110.0"/>
      <point x="343.0" y="235.0" type="curve" smooth="yes"/>
      <point x="343.0" y="333.0"/>
      <point x="280.0" y="394.0"/>
      <point x="197.0" y="394.0" type="curve" smooth="yes"/>
      <point x="116.0" y="394.0"/>
      <point x="57.0" y="336.0"/>
      <point x="57.0" y="266.0" type="curve" smooth="yes"/>
      <point x="57.0" y="207.0"/>
      <point x="103.0" y="155.0"/>
      <point x="178.0" y="155.0" type="curve" smooth="yes"/>
      <point x="218.0" y="155.0"/>
      <point x="256.0" y="181.0"/>
    </contour>
  </outline>
</glyph>
<glyph name="lira" format="2">
  <advance width="460.0"/>
  <unicode hex="20A4"/>
  <note>
lira
</note>
  <outline>
    <contour>
      <point x="58.0" y="-7.0" type="line"/>
      <point x="76.0" y="0.0"/>
      <point x="113.0" y="10.0"/>
      <point x="168.0" y="10.0" type="curve" smooth="yes"/>
      <point x="232.0" y="10.0"/>
      <point x="301.0" y="-6.0"/>
      <point x="329.0" y="-6.0" type="curve" smooth="yes"/>
      <point x="386.0" y="-6.0"/>
      <point x="424.0" y="8.0"/>
      <point x="460.0" y="96.0" type="curve"/>
      <point x="430.0" y="111.0" type="line"/>
      <point x="412.0" y="67.0"/>
      <point x="375.0" y="51.0"/>
      <point x="349.0" y="51.0" type="curve" smooth="yes"/>
      <point x="325.0" y="51.0"/>
      <point x="278.0" y="64.0"/>
      <point x="252.0" y="64.0" type="curve" smooth="yes"/>
      <point x="201.0" y="64.0"/>
      <point x="180.0" y="60.0"/>
      <point x="117.0" y="39.0" type="curve"/>
      <point x="106.0" y="30.0" type="line"/>
      <point x="176.0" y="52.0"/>
      <point x="205.0" y="116.0"/>
      <point x="205.0" y="180.0" type="curve" smooth="yes"/>
      <point x="205.0" y="279.0"/>
      <point x="155.0" y="369.0"/>
      <point x="155.0" y="462.0" type="curve" smooth="yes"/>
      <point x="155.0" y="547.0"/>
      <point x="238.0" y="571.0"/>
      <point x="321.0" y="552.0" type="curve"/>
      <point x="274.0" y="570.0" type="line"/>
      <point x="321.0" y="518.0" type="line" smooth="yes"/>
      <point x="341.0" y="497.0"/>
      <point x="354.0" y="490.0"/>
      <point x="372.0" y="490.0" type="curve" smooth="yes"/>
      <point x="394.0" y="490.0"/>
      <point x="406.0" y="502.0"/>
      <point x="406.0" y="524.0" type="curve" smooth="yes"/>
      <point x="406.0" y="564.0"/>
      <point x="348.0" y="596.0"/>
      <point x="272.0" y="596.0" type="curve" smooth="yes"/>
      <point x="162.0" y="596.0"/>
      <point x="83.0" y="531.0"/>
      <point x="83.0" y="440.0" type="curve" smooth="yes"/>
      <point x="83.0" y="331.0"/>
      <point x="151.0" y="251.0"/>
      <point x="151.0" y="147.0" type="curve" smooth="yes"/>
      <point x="151.0" y="80.0"/>
      <point x="122.0" y="49.0"/>
      <point x="45.0" y="30.0" type="curve"/>
    </contour>
    <contour>
      <point x="28.0" y="341.0" type="line"/>
      <point x="345.0" y="341.0" type="line"/>
      <point x="345.0" y="379.0" type="line"/>
      <point x="28.0" y="379.0" type="line"/>
    </contour>
    <contour>
      <point x="28.0" y="219.0" type="line"/>
      <point x="345.0" y="219.0" type="line"/>
      <point x="345.0" y="257.0" type="line"/>
      <point x="28.0" y="257.0" type="line"/>
    </contour>
  </outline>
</glyph>
<glyph name="peseta" format="2">
  <advance width="560.0"/>
  <unicode hex="20A7"/>
  <outline>
    <contour>
      <point x="34.0" y="401.0" type="line"/>
      <point x="518.0" y="401.0" type="line"/>
      <point x="518.0" y="439.0" type="line"/>
      <point x="34.0" y="439.0" type="line"/>
    </contour>
    <contour>
      <point x="59.0" y="0.0" type="line"/>
      <point x="263.0" y="0.0" type="line"/>
      <point x="265.0" y="34.0" type="line"/>
      <point x="184.0" y="47.0" type="line"/>
      <point x="182.0" y="52.0"/>
      <point x="179.0" y="70.0"/>
      <point x="179.0" y="184.0" type="curve"/>
      <point x="178.0" y="407.0" type="line"/>
      <point x="178.0" y="466.0"/>
      <point x="180.0" y="537.0"/>
      <point x="181.0" y="549.0" type="curve"/>
      <point x="243.0" y="549.0" type="line" smooth="yes"/>
      <point x="315.0" y="549.0"/>
      <point x="377.0" y="504.0"/>
      <point x="377.0" y="407.0" type="curve" smooth="yes"/>
      <point x="377.0" y="322.0"/>
      <point x="325.0" y="284.0"/>
      <point x="240.0" y="284.0" type="curve" smooth="yes"/>
      <point x="219.0" y="284.0"/>
      <point x="197.0" y="288.0"/>
      <point x="161.0" y="296.0" type="curve"/>
      <point x="161.0" y="250.0" type="line"/>
      <point x="184.0" y="246.0"/>
      <point x="210.0" y="242.0"/>
      <point x="243.0" y="242.0" type="curve" smooth="yes"/>
      <point x="344.0" y="242.0"/>
      <point x="441.0" y="307.0"/>
      <point x="441.0" y="419.0" type="curve" smooth="yes"/>
      <point x="441.0" y="527.0"/>
      <point x="365.0" y="587.0"/>
      <point x="248.0" y="587.0" type="curve" smooth="yes"/>
      <point x="56.0" y="587.0" type="line"/>
      <point x="54.0" y="555.0" type="line"/>
      <point x="114.0" y="539.0" type="line"/>
      <point x="115.0" y="534.0"/>
      <point x="117.0" y="517.0"/>
      <point x="117.0" y="407.0" type="curve"/>
      <point x="116.0" y="184.0" type="line"/>
      <point x="116.0" y="70.0"/>
      <point x="114.0" y="52.0"/>
      <point x="113.0" y="45.0" type="curve"/>
      <point x="57.0" y="32.0" type="line"/>
    </contour>
  </outline>
</glyph>
<glyph name="euro" format="2">
  <advance width="646.0"/>
  <unicode hex="20AC"/>
  <note>
Euro
</note>
  <outline>
    <contour>
      <point x="27.0" y="341.0" type="line"/>
      <point x="429.0" y="341.0" type="line"/>
      <point x="429.0" y="379.0" type="line"/>
      <point x="27.0" y="379.0" type="line"/>
    </contour>
    <contour>
      <point x="27.0" y="219.0" type="line"/>
      <point x="429.0" y="219.0" type="line"/>
      <point x="429.0" y="257.0" type="line"/>
      <point x="27.0" y="257.0" type="line"/>
    </contour>
    <contour>
      <point x="416.0" y="-9.0" type="curve" smooth="yes"/>
      <point x="481.0" y="-9.0"/>
      <point x="539.0" y="9.0"/>
      <point x="588.0" y="32.0" type="curve"/>
      <point x="615.0" y="154.0" type="line"/>
      <point x="580.0" y="158.0" type="line"/>
      <point x="531.0" y="62.0" type="line"/>
      <point x="495.0" y="44.0"/>
      <point x="466.0" y="36.0"/>
      <point x="419.0" y="36.0" type="curve" smooth="yes"/>
      <point x="287.0" y="36.0"/>
      <point x="182.0" y="128.0"/>
      <point x="182.0" y="307.0" type="curve" smooth="yes"/>
      <point x="182.0" y="432.0"/>
      <point x="247.0" y="552.0"/>
      <point x="416.0" y="552.0" type="curve" smooth="yes"/>
      <point x="456.0" y="552.0"/>
      <point x="510.0" y="543.0"/>
      <point x="536.0" y="523.0" type="curve"/>
      <point x="563.0" y="433.0" type="line"/>
      <point x="600.0" y="437.0" type="line"/>
      <point x="593.0" y="566.0" type="line"/>
      <point x="542.0" y="586.0"/>
      <point x="475.0" y="596.0"/>
      <point x="425.0" y="596.0" type="curve" smooth="yes"/>
      <point x="214.0" y="596.0"/>
      <point x="106.0" y="446.0"/>
      <point x="106.0" y="292.0" type="curve" smooth="yes"/>
      <point x="106.0" y="89.0"/>
      <point x="252.0" y="-9.0"/>
    </contour>
  </outline>
</glyph>
<glyph name="kip" format="2">
  <advance width="559.0"/>
  <unicode hex="20AD"/>
  <outline>
    <contour>
      <point x="360.0" y="0.0" type="line"/>
      <point x="563.0" y="0.0" type="line"/>
      <point x="563.0" y="33.0" type="line"/>
      <point x="514.0" y="47.0" type="line"/>
      <point x="496.0" y="62.0"/>
      <point x="472.0" y="90.0"/>
      <point x="446.0" y="119.0" type="curve" smooth="yes"/>
      <point x="282.0" y="300.0" type="line"/>
      <point x="255.0" y="300.0" type="line"/>
      <point x="502.0" y="543.0" type="line"/>
      <point x="555.0" y="553.0" type="line"/>
      <point x="553.0" y="587.0" type="line"/>
      <point x="378.0" y="587.0" type="line"/>
      <point x="376.0" y="555.0" type="line"/>
      <point x="435.0" y="541.0" type="line"/>
      <point x="204.0" y="295.0" type="line"/>
      <point x="381.0" y="93.0" type="line" smooth="yes"/>
      <point x="396.0" y="75.0"/>
      <point x="412.0" y="56.0"/>
      <point x="423.0" y="42.0" type="curve"/>
      <point x="358.0" y="32.0" type="line"/>
    </contour>
    <contour>
      <point x="56.0" y="0.0" type="line"/>
      <point x="245.0" y="0.0" type="line"/>
      <point x="247.0" y="32.0" type="line"/>
      <point x="182.0" y="45.0" type="line"/>
      <point x="181.0" y="55.0"/>
      <point x="179.0" y="99.0"/>
      <point x="179.0" y="189.0" type="curve" smooth="yes"/>
      <point x="179.0" y="397.0" type="line" smooth="yes"/>
      <point x="179.0" y="501.0"/>
      <point x="181.0" y="536.0"/>
      <point x="184.0" y="542.0" type="curve"/>
      <point x="244.0" y="555.0" type="line"/>
      <point x="242.0" y="587.0" type="line"/>
      <point x="56.0" y="587.0" type="line"/>
      <point x="54.0" y="555.0" type="line"/>
      <point x="114.0" y="542.0" type="line"/>
      <point x="117.0" y="534.0"/>
      <point x="118.0" y="490.0"/>
      <point x="118.0" y="397.0" type="curve" smooth="yes"/>
      <point x="118.0" y="189.0" type="line" smooth="yes"/>
      <point x="118.0" y="99.0"/>
      <point x="116.0" y="55.0"/>
      <point x="114.0" y="45.0" type="curve"/>
      <point x="54.0" y="32.0" type="line"/>
    </contour>
    <contour>
      <point x="35.0" y="283.0" type="line"/>
      <point x="479.0" y="283.0" type="line"/>
      <point x="479.0" y="321.0" type="line"/>
      <point x="35.0" y="321.0" type="line"/>
    </contour>
  </outline>
</glyph>
<glyph name="ruble" format="2">
  <advance width="490.0"/>
  <unicode hex="20BD"/>
  <outline>
    <contour>
      <point x="32.0" y="154.0" type="line"/>
      <point x="385.0" y="154.0" type="line"/>
      <point x="385.0" y="192.0" type="line"/>
      <point x="32.0" y="192.0" type="line"/>
    </contour>
    <contour>
      <point x="60.0" y="0.0" type="line"/>
      <point x="264.0" y="0.0" type="line"/>
      <point x="266.0" y="34.0" type="line"/>
      <point x="185.0" y="47.0" type="line"/>
      <point x="182.0" y="52.0"/>
      <point x="180.0" y="70.0"/>
      <point x="180.0" y="184.0" type="curve"/>
      <point x="179.0" y="407.0" type="line"/>
      <point x="179.0" y="466.0"/>
      <point x="181.0" y="537.0"/>
      <point x="182.0" y="549.0" type="curve"/>
      <point x="244.0" y="549.0" type="line" smooth="yes"/>
      <point x="316.0" y="549.0"/>
      <point x="378.0" y="510.0"/>
      <point x="378.0" y="422.0" type="curve" smooth="yes"/>
      <point x="378.0" y="347.0"/>
      <point x="326.0" y="314.0"/>
      <point x="241.0" y="314.0" type="curve" smooth="yes"/>
      <point x="32.0" y="314.0" type="line"/>
      <point x="32.0" y="276.0" type="line"/>
      <point x="244.0" y="276.0" type="line" smooth="yes"/>
      <point x="345.0" y="276.0"/>
      <point x="442.0" y="334.0"/>
      <point x="442.0" y="436.0" type="curve" smooth="yes"/>
      <point x="442.0" y="534.0"/>
      <point x="366.0" y="587.0"/>
      <point x="249.0" y="587.0" type="curve" smooth="yes"/>
      <point x="57.0" y="587.0" type="line"/>
      <point x="55.0" y="555.0" type="line"/>
      <point x="115.0" y="539.0" type="line"/>
      <point x="116.0" y="534.0"/>
      <point x="118.0" y="517.0"/>
      <point x="118.0" y="407.0" type="curve"/>
      <point x="117.0" y="184.0" type="line"/>
      <point x="117.0" y="70.0"/>
      <point x="115.0" y="52.0"/>
      <point x="114.0" y="45.0" type="curve"/>
      <point x="58.0" y="32.0" type="line"/>
    </contour>
  </outline>
</glyph>
<glyph name="literSign" format="2">
  <advance width="426.0"/>
  <unicode hex="2113"/>
  <outline>
    <contour>
      <point x="31.0" y="162.0" type="curve"/>
      <point x="54.0" y="138.0" type="line"/>
      <point x="278.0" y="323.0"/>
      <point x="382.0" y="469.0"/>
      <point x="382.0" y="605.0" type="curve" smooth="yes"/>
      <point x="382.0" y="661.0"/>
      <point x="355.0" y="696.0"/>
      <point x="313.0" y="696.0" type="curve" smooth="yes"/>
      <point x="211.0" y="696.0"/>
      <point x="130.0" y="515.0"/>
      <point x="130.0" y="171.0" type="curve" smooth="yes"/>
      <point x="130.0" y="49.0"/>
      <point x="163.0" y="-15.0"/>
      <point x="227.0" y="-15.0" type="curve" smooth="yes"/>
      <point x="270.0" y="-15.0"/>
      <point x="303.0" y="1.0"/>
      <point x="340.0" y="61.0" type="curve"/>
      <point x="322.0" y="79.0" type="line"/>
      <point x="291.0" y="44.0"/>
      <point x="268.0" y="33.0"/>
      <point x="245.0" y="33.0" type="curve" smooth="yes"/>
      <point x="201.0" y="33.0"/>
      <point x="183.0" y="83.0"/>
      <point x="183.0" y="198.0" type="curve" smooth="yes"/>
      <point x="183.0" y="487.0"/>
      <point x="242.0" y="662.0"/>
      <point x="296.0" y="662.0" type="curve" smooth="yes"/>
      <point x="319.0" y="662.0"/>
      <point x="330.0" y="640.0"/>
      <point x="331.0" y="592.0" type="curve" smooth="yes"/>
      <point x="332.0" y="473.0"/>
      <point x="223.0" y="316.0"/>
    </contour>
  </outline>
</glyph>
<glyph name="product" format="2">
  <advance width="613.0"/>
  <unicode hex="220F"/>
  <outline>
    <contour>
      <point x="495.0" y="99.0" type="curve" smooth="yes"/>
      <point x="495.0" y="397.0" type="line" smooth="yes"/>
      <point x="495.0" y="508.0"/>
      <point x="496.0" y="535.0"/>
      <point x="501.0" y="542.0" type="curve"/>
      <point x="561.0" y="555.0" type="line"/>
      <point x="559.0" y="587.0" type="line"/>
      <point x="54.0" y="587.0" type="line"/>
      <point x="52.0" y="555.0" type="line"/>
      <point x="112.0" y="542.0" type="line"/>
      <point x="116.0" y="533.0"/>
      <point x="117.0" y="490.0"/>
      <point x="117.0" y="397.0" type="curve" smooth="yes"/>
      <point x="117.0" y="99.0" type="line" smooth="yes"/>
      <point x="117.0" y="7.0"/>
      <point x="116.0" y="-36.0"/>
      <point x="115.0" y="-45.0" type="curve"/>
      <point x="55.0" y="-58.0" type="line"/>
      <point x="57.0" y="-90.0" type="line"/>
      <point x="241.0" y="-90.0" type="line"/>
      <point x="243.0" y="-58.0" type="line"/>
      <point x="182.0" y="-45.0" type="line"/>
      <point x="180.0" y="-38.0"/>
      <point x="178.0" y="-6.0"/>
      <point x="178.0" y="99.0" type="curve" smooth="yes"/>
      <point x="178.0" y="397.0" type="line" smooth="yes"/>
      <point x="178.0" y="504.0"/>
      <point x="180.0" y="535.0"/>
      <point x="182.0" y="541.0" type="curve"/>
      <point x="214.0" y="543.0"/>
      <point x="260.0" y="543.0"/>
      <point x="307.0" y="543.0" type="curve" smooth="yes"/>
      <point x="354.0" y="543.0"/>
      <point x="399.0" y="543.0"/>
      <point x="431.0" y="541.0" type="curve"/>
      <point x="434.0" y="535.0"/>
      <point x="434.0" y="504.0"/>
      <point x="434.0" y="397.0" type="curve" smooth="yes"/>
      <point x="434.0" y="99.0" type="line" smooth="yes"/>
      <point x="434.0" y="-6.0"/>
      <point x="432.0" y="-38.0"/>
      <point x="429.0" y="-45.0" type="curve"/>
      <point x="369.0" y="-58.0" type="line"/>
      <point x="371.0" y="-90.0" type="line"/>
      <point x="556.0" y="-90.0" type="line"/>
      <point x="558.0" y="-58.0" type="line"/>
      <point x="498.0" y="-45.0" type="line"/>
      <point x="496.0" y="-38.0"/>
      <point x="495.0" y="-10.0"/>
    </contour>
  </outline>
</glyph>
<glyph name="bulletoperator" format="2">
  <advance width="540.0"/>
  <unicode hex="2219"/>
  <note>
periodcentered
</note>
  <outline>
    <contour>
      <point x="270.0" y="208.0" type="curve" smooth="yes"/>
      <point x="298.0" y="208.0"/>
      <point x="318.0" y="228.0"/>
      <point x="318.0" y="255.0" type="curve" smooth="yes"/>
      <point x="318.0" y="282.0"/>
      <point x="298.0" y="300.0"/>
      <point x="270.0" y="300.0" type="curve" smooth="yes"/>
      <point x="241.0" y="300.0"/>
      <point x="222.0" y="282.0"/>
      <point x="222.0" y="255.0" type="curve" smooth="yes"/>
      <point x="222.0" y="228.0"/>
      <point x="241.0" y="208.0"/>
    </contour>
  </outline>
</glyph>
<glyph name="T_h" format="2">
  <advance width="954.0"/>
  <note>
T_h
</note>
  <outline>
    <contour>
      <point x="862.0" y="45.0" type="line"/>
      <point x="859.0" y="61.0"/>
      <point x="856.0" y="101.0"/>
      <point x="856.0" y="151.0" type="curve" smooth="yes"/>
      <point x="856.0" y="262.0" type="line" smooth="yes"/>
      <point x="856.0" y="383.0"/>
      <point x="784.0" y="433.0"/>
      <point x="716.0" y="433.0" type="curve" smooth="yes"/>
      <point x="665.0" y="433.0"/>
      <point x="625.0" y="415.0"/>
      <point x="576.0" y="364.0" type="curve"/>
      <point x="573.0" y="365.0" type="line"/>
      <point x="574.0" y="465.0"/>
      <point x="574.0" y="532.0"/>
      <point x="575.0" y="592.0" type="curve"/>
      <point x="539.0" y="589.0"/>
      <point x="521.0" y="587.0"/>
      <point x="494.0" y="587.0" type="curve" smooth="yes"/>
      <point x="118.0" y="587.0" type="line" smooth="yes"/>
      <point x="85.0" y="587.0"/>
      <point x="78.0" y="587.0"/>
      <point x="39.0" y="591.0" type="curve"/>
      <point x="17.0" y="436.0" type="line"/>
      <point x="53.0" y="430.0" type="line"/>
      <point x="97.0" y="543.0" type="line"/>
      <point x="105.0" y="545.0"/>
      <point x="121.0" y="546.0"/>
      <point x="131.0" y="546.0" type="curve" smooth="yes"/>
      <point x="167.0" y="546.0" type="line" smooth="yes"/>
      <point x="182.0" y="546.0"/>
      <point x="212.0" y="546.0"/>
      <point x="234.0" y="545.0" type="curve"/>
      <point x="235.0" y="526.0"/>
      <point x="235.0" y="423.0"/>
      <point x="235.0" y="372.0" type="curve" smooth="yes"/>
      <point x="235.0" y="217.0" type="line" smooth="yes"/>
      <point x="235.0" y="127.0"/>
      <point x="233.0" y="56.0"/>
      <point x="233.0" y="45.0" type="curve"/>
      <point x="150.0" y="34.0" type="line"/>
      <point x="151.0" y="0.0" type="line"/>
      <point x="381.0" y="0.0" type="line"/>
      <point x="382.0" y="34.0" type="line"/>
      <point x="299.0" y="45.0" type="line"/>
      <point x="299.0" y="56.0"/>
      <point x="297.0" y="127.0"/>
      <point x="297.0" y="217.0" type="curve" smooth="yes"/>
      <point x="297.0" y="372.0" type="line" smooth="yes"/>
      <point x="297.0" y="445.0"/>
      <point x="297.0" y="530.0"/>
      <point x="298.0" y="544.0" type="curve"/>
      <point x="318.0" y="546.0"/>
      <point x="349.0" y="546.0"/>
      <point x="360.0" y="546.0" type="curve" smooth="yes"/>
      <point x="475.0" y="546.0" type="line" smooth="yes"/>
      <point x="498.0" y="546.0"/>
      <point x="513.0" y="544.0"/>
      <point x="521.0" y="542.0" type="curve"/>
      <point x="521.0" y="490.0"/>
      <point x="523.0" y="416.0"/>
      <point x="523.0" y="364.0" type="curve" smooth="yes"/>
      <point x="523.0" y="240.0" type="line" smooth="yes"/>
      <point x="523.0" y="108.0"/>
      <point x="522.0" y="69.0"/>
      <point x="519.0" y="45.0" type="curve"/>
      <point x="457.0" y="31.0" type="line"/>
      <point x="459.0" y="0.0" type="line"/>
      <point x="638.0" y="0.0" type="line"/>
      <point x="640.0" y="31.0" type="line"/>
      <point x="578.0" y="45.0" type="line"/>
      <point x="576.0" y="55.0"/>
      <point x="574.0" y="99.0"/>
      <point x="574.0" y="165.0" type="curve" smooth="yes"/>
      <point x="574.0" y="318.0" type="line"/>
      <point x="604.0" y="362.0"/>
      <point x="647.0" y="388.0"/>
      <point x="696.0" y="388.0" type="curve" smooth="yes"/>
      <point x="751.0" y="388.0"/>
      <point x="805.0" y="351.0"/>
      <point x="805.0" y="260.0" type="curve" smooth="yes"/>
      <point x="805.0" y="141.0" type="line" smooth="yes"/>
      <point x="805.0" y="77.0"/>
      <point x="803.0" y="60.0"/>
      <point x="802.0" y="45.0" type="curve"/>
      <point x="744.0" y="31.0" type="line"/>
      <point x="746.0" y="0.0" type="line"/>
      <point x="923.0" y="0.0" type="line"/>
      <point x="924.0" y="31.0" type="line"/>
    </contour>
  </outline>
</glyph>
<glyph name="acutecomb_dotaccentcomb.case" format="2">
  <anchor x="300.0" y="660.0" name="_top"/>
  <outline>
    <contour>
      <point x="296.0" y="890.0" type="curve" smooth="yes"/>
      <point x="318.0" y="890.0"/>
      <point x="337.0" y="906.0"/>
      <point x="337.0" y="933.0" type="curve" smooth="yes"/>
      <point x="337.0" y="958.0"/>
      <point x="318.0" y="976.0"/>
      <point x="296.0" y="976.0" type="curve" smooth="yes"/>
      <point x="273.0" y="976.0"/>
      <point x="252.0" y="958.0"/>
      <point x="252.0" y="933.0" type="curve" smooth="yes"/>
      <point x="252.0" y="906.0"/>
      <point x="273.0" y="890.0"/>
    </contour>
    <contour>
      <point x="316.0" y="716.0" type="line"/>
      <point x="405.0" y="834.0" type="line"/>
      <point x="344.0" y="857.0" type="line"/>
      <point x="284.0" y="727.0" type="line"/>
    </contour>
  </outline>
</glyph>
<glyph name="brevecomb_acutecomb.case" format="2">
  <anchor x="300.0" y="660.0" name="_top"/>
  <outline>
    <contour>
      <point x="308.0" y="832.0" type="line"/>
      <point x="397.0" y="950.0" type="line"/>
      <point x="336.0" y="973.0" type="line"/>
      <point x="277.0" y="843.0" type="line"/>
    </contour>
    <contour>
      <point x="427.0" y="851.0" type="line"/>
      <point x="416.0" y="801.0"/>
      <point x="371.0" y="771.0"/>
      <point x="300.0" y="771.0" type="curve" smooth="yes"/>
      <point x="234.0" y="771.0"/>
      <point x="188.0" y="801.0"/>
      <point x="177.0" y="851.0" type="curve"/>
      <point x="144.0" y="840.0" type="line"/>
      <point x="157.0" y="762.0"/>
      <point x="218.0" y="719.0"/>
      <point x="301.0" y="719.0" type="curve" smooth="yes"/>
      <point x="385.0" y="719.0"/>
      <point x="443.0" y="762.0"/>
      <point x="456.0" y="840.0" type="curve"/>
    </contour>
  </outline>
</glyph>
<glyph name="brevecomb_tildecomb.case" format="2">
  <anchor x="300.0" y="660.0" name="_top"/>
  <outline>
    <contour>
      <point x="300.0" y="719.0" type="curve" smooth="yes"/>
      <point x="384.0" y="719.0"/>
      <point x="441.0" y="762.0"/>
      <point x="454.0" y="840.0" type="curve"/>
      <point x="425.0" y="851.0" type="line"/>
      <point x="415.0" y="801.0"/>
      <point x="370.0" y="771.0"/>
      <point x="299.0" y="771.0" type="curve" smooth="yes"/>
      <point x="232.0" y="771.0"/>
      <point x="187.0" y="801.0"/>
      <point x="175.0" y="851.0" type="curve"/>
      <point x="143.0" y="840.0" type="line"/>
      <point x="156.0" y="762.0"/>
      <point x="217.0" y="719.0"/>
    </contour>
    <contour>
      <point x="368.0" y="870.0" type="curve" smooth="yes"/>
      <point x="408.0" y="870.0"/>
      <point x="442.0" y="906.0"/>
      <point x="461.0" y="961.0" type="curve"/>
      <point x="431.0" y="976.0" type="line"/>
      <point x="415.0" y="946.0"/>
      <point x="400.0" y="928.0"/>
      <point x="372.0" y="928.0" type="curve" smooth="yes"/>
      <point x="328.0" y="928.0"/>
      <point x="280.0" y="976.0"/>
      <point x="230.0" y="976.0" type="curve" smooth="yes"/>
      <point x="189.0" y="976.0"/>
      <point x="155.0" y="940.0"/>
      <point x="136.0" y="885.0" type="curve"/>
      <point x="166.0" y="870.0" type="line"/>
      <point x="182.0" y="900.0"/>
      <point x="195.0" y="918.0"/>
      <point x="226.0" y="918.0" type="curve" smooth="yes"/>
      <point x="269.0" y="918.0"/>
      <point x="318.0" y="870.0"/>
    </contour>
  </outline>
</glyph>
<glyph name="brevecomb_tildecomb" format="2">
  <anchor x="300.0" y="425.0" name="_top"/>
  <outline>
    <contour>
      <point x="301.0" y="495.0" type="curve" smooth="yes"/>
      <point x="377.0" y="495.0"/>
      <point x="428.0" y="563.0"/>
      <point x="426.0" y="640.0" type="curve"/>
      <point x="397.0" y="652.0" type="line"/>
      <point x="389.0" y="601.0"/>
      <point x="355.0" y="553.0"/>
      <point x="302.0" y="553.0" type="curve" smooth="yes"/>
      <point x="250.0" y="553.0"/>
      <point x="216.0" y="601.0"/>
      <point x="207.0" y="652.0" type="curve"/>
      <point x="174.0" y="640.0" type="line"/>
      <point x="172.0" y="563.0"/>
      <point x="221.0" y="495.0"/>
    </contour>
    <contour>
      <point x="362.0" y="672.0" type="curve" smooth="yes"/>
      <point x="401.0" y="672.0"/>
      <point x="432.0" y="710.0"/>
      <point x="450.0" y="766.0" type="curve"/>
      <point x="425.0" y="782.0" type="line"/>
      <point x="410.0" y="751.0"/>
      <point x="395.0" y="729.0"/>
      <point x="370.0" y="729.0" type="curve" smooth="yes"/>
      <point x="329.0" y="729.0"/>
      <point x="284.0" y="790.0"/>
      <point x="238.0" y="790.0" type="curve" smooth="yes"/>
      <point x="199.0" y="790.0"/>
      <point x="168.0" y="752.0"/>
      <point x="150.0" y="696.0" type="curve"/>
      <point x="175.0" y="681.0" type="line"/>
      <point x="190.0" y="711.0"/>
      <point x="203.0" y="733.0"/>
      <point x="231.0" y="733.0" type="curve" smooth="yes"/>
      <point x="270.0" y="733.0"/>
      <point x="316.0" y="672.0"/>
    </contour>
  </outline>
</glyph>
<glyph name="caroncomb.case" format="2">
  <note>
uni030C.cap
</note>
  <anchor x="300.0" y="660.0" name="_top"/>
  <anchor x="300.0" y="867.0" name="top"/>
  <outline>
    <contour>
      <point x="140.0" y="830.0" type="line"/>
      <point x="271.0" y="720.0" type="line"/>
      <point x="329.0" y="720.0" type="line"/>
      <point x="460.0" y="830.0" type="line"/>
      <point x="432.0" y="851.0" type="line"/>
      <point x="271.0" y="756.0" type="line"/>
      <point x="329.0" y="756.0" type="line"/>
      <point x="168.0" y="851.0" type="line"/>
    </contour>
  </outline>
</glyph>
<glyph name="caroncomb_dotaccentcomb.case" format="2">
  <advance width="600.0"/>
  <anchor x="300.0" y="660.0" name="_top"/>
  <outline>
    <contour>
      <point x="301.0" y="890.0" type="curve" smooth="yes"/>
      <point x="324.0" y="890.0"/>
      <point x="343.0" y="906.0"/>
      <point x="343.0" y="933.0" type="curve" smooth="yes"/>
      <point x="343.0" y="958.0"/>
      <point x="324.0" y="976.0"/>
      <point x="301.0" y="976.0" type="curve" smooth="yes"/>
      <point x="278.0" y="976.0"/>
      <point x="257.0" y="958.0"/>
      <point x="257.0" y="933.0" type="curve" smooth="yes"/>
      <point x="257.0" y="906.0"/>
      <point x="278.0" y="890.0"/>
    </contour>
    <contour>
      <point x="140.0" y="830.0" type="line"/>
      <point x="271.0" y="720.0" type="line"/>
      <point x="329.0" y="720.0" type="line"/>
      <point x="460.0" y="830.0" type="line"/>
      <point x="432.0" y="851.0" type="line"/>
      <point x="271.0" y="756.0" type="line"/>
      <point x="329.0" y="756.0" type="line"/>
      <point x="168.0" y="851.0" type="line"/>
    </contour>
  </outline>
</glyph>
<glyph name="circumflexcomb_hookabovecomb.case" format="2">
  <anchor x="300.0" y="660.0" name="_top"/>
  <outline>
    <contour>
      <point x="460.0" y="734.0" type="line"/>
      <point x="329.0" y="843.0" type="line"/>
      <point x="271.0" y="843.0" type="line"/>
      <point x="140.0" y="734.0" type="line"/>
      <point x="168.0" y="713.0" type="line"/>
      <point x="329.0" y="808.0" type="line"/>
      <point x="271.0" y="808.0" type="line"/>
      <point x="432.0" y="713.0" type="line"/>
    </contour>
    <contour>
      <point x="407.0" y="973.0" type="curve" smooth="yes"/>
      <point x="355.0" y="973.0"/>
      <point x="321.0" y="949.0"/>
      <point x="321.0" y="926.0" type="curve" smooth="yes"/>
      <point x="321.0" y="912.0"/>
      <point x="329.0" y="902.0"/>
      <point x="344.0" y="902.0" type="curve" smooth="yes"/>
      <point x="358.0" y="902.0"/>
      <point x="362.0" y="907.0"/>
      <point x="380.0" y="923.0" type="curve" smooth="yes"/>
      <point x="412.0" y="952.0" type="line"/>
      <point x="379.0" y="947.0" type="line"/>
      <point x="407.0" y="954.0"/>
      <point x="436.0" y="952.0"/>
      <point x="436.0" y="915.0" type="curve" smooth="yes"/>
      <point x="436.0" y="887.0"/>
      <point x="391.0" y="878.0"/>
      <point x="391.0" y="824.0" type="curve" smooth="yes"/>
      <point x="391.0" y="809.0" type="line"/>
      <point x="418.0" y="809.0" type="line"/>
      <point x="418.0" y="870.0"/>
      <point x="494.0" y="854.0"/>
      <point x="494.0" y="912.0" type="curve" smooth="yes"/>
      <point x="494.0" y="950.0"/>
      <point x="458.0" y="973.0"/>
    </contour>
  </outline>
</glyph>
<glyph name="circumflexcomb_hookabovecomb" format="2">
  <anchor x="300.0" y="425.0" name="_top"/>
  <outline>
    <contour>
      <point x="430.0" y="492.0" type="line"/>
      <point x="329.0" y="662.0" type="line"/>
      <point x="271.0" y="662.0" type="line"/>
      <point x="170.0" y="492.0" type="line"/>
      <point x="201.0" y="482.0" type="line"/>
      <point x="329.0" y="639.0" type="line"/>
      <point x="271.0" y="639.0" type="line"/>
      <point x="399.0" y="482.0" type="line"/>
    </contour>
    <contour>
      <point x="407.0" y="790.0" type="curve" smooth="yes"/>
      <point x="355.0" y="790.0"/>
      <point x="321.0" y="766.0"/>
      <point x="321.0" y="743.0" type="curve" smooth="yes"/>
      <point x="321.0" y="729.0"/>
      <point x="329.0" y="719.0"/>
      <point x="344.0" y="719.0" type="curve" smooth="yes"/>
      <point x="358.0" y="719.0"/>
      <point x="362.0" y="724.0"/>
      <point x="380.0" y="740.0" type="curve" smooth="yes"/>
      <point x="412.0" y="769.0" type="line"/>
      <point x="379.0" y="764.0" type="line"/>
      <point x="407.0" y="771.0"/>
      <point x="436.0" y="769.0"/>
      <point x="436.0" y="732.0" type="curve" smooth="yes"/>
      <point x="436.0" y="703.0"/>
      <point x="391.0" y="688.0"/>
      <point x="391.0" y="630.0" type="curve" smooth="yes"/>
      <point x="391.0" y="613.0" type="line"/>
      <point x="418.0" y="613.0" type="line"/>
      <point x="418.0" y="679.0"/>
      <point x="494.0" y="662.0"/>
      <point x="494.0" y="729.0" type="curve" smooth="yes"/>
      <point x="494.0" y="766.0"/>
      <point x="458.0" y="790.0"/>
    </contour>
  </outline>
</glyph>
<glyph name="commaturnedabovecomb.case" format="2">
  <anchor x="300.0" y="660.0" name="_top"/>
  <anchor x="300.0" y="865.0" name="top"/>
  <outline>
    <contour>
      <point x="360.0" y="897.0" type="line"/>
      <point x="302.0" y="876.0"/>
      <point x="258.0" y="832.0"/>
      <point x="258.0" y="777.0" type="curve" smooth="yes"/>
      <point x="258.0" y="745.0"/>
      <point x="274.0" y="719.0"/>
      <point x="307.0" y="719.0" type="curve" smooth="yes"/>
      <point x="327.0" y="719.0"/>
      <point x="342.0" y="733.0"/>
      <point x="342.0" y="752.0" type="curve" smooth="yes"/>
      <point x="342.0" y="787.0"/>
      <point x="308.0" y="784.0"/>
      <point x="308.0" y="816.0" type="curve" smooth="yes"/>
      <point x="308.0" y="839.0"/>
      <point x="335.0" y="863.0"/>
      <point x="371.0" y="875.0" type="curve"/>
    </contour>
  </outline>
</glyph>
<glyph name="dblgravecomb.case" format="2">
  <anchor x="300.0" y="660.0" name="_top"/>
  <anchor x="300.0" y="882.0" name="top"/>
  <outline>
    <contour>
      <point x="344.0" y="713.0" type="line"/>
      <point x="368.0" y="723.0" type="line"/>
      <point x="322.0" y="845.0" type="line"/>
      <point x="261.0" y="832.0" type="line"/>
    </contour>
    <contour>
      <point x="232.0" y="713.0" type="line"/>
      <point x="256.0" y="723.0" type="line"/>
      <point x="210.0" y="845.0" type="line"/>
      <point x="149.0" y="832.0" type="line"/>
    </contour>
  </outline>
</glyph>
<glyph name="dieresiscomb.case" format="2">
  <note>
uni0308.cap
</note>
  <anchor x="300.0" y="660.0" name="_top"/>
  <anchor x="300.0" y="865.0" name="top"/>
  <outline>
    <contour>
      <point x="208.0" y="741.0" type="curve" smooth="yes"/>
      <point x="230.0" y="741.0"/>
      <point x="249.0" y="757.0"/>
      <point x="249.0" y="783.0" type="curve" smooth="yes"/>
      <point x="249.0" y="808.0"/>
      <point x="230.0" y="825.0"/>
      <point x="208.0" y="825.0" type="curve" smooth="yes"/>
      <point x="185.0" y="825.0"/>
      <point x="165.0" y="808.0"/>
      <point x="165.0" y="783.0" type="curve" smooth="yes"/>
      <point x="165.0" y="757.0"/>
      <point x="185.0" y="741.0"/>
    </contour>
    <contour>
      <point x="394.0" y="741.0" type="curve" smooth="yes"/>
      <point x="416.0" y="741.0"/>
      <point x="435.0" y="757.0"/>
      <point x="435.0" y="783.0" type="curve" smooth="yes"/>
      <point x="435.0" y="808.0"/>
      <point x="416.0" y="825.0"/>
      <point x="394.0" y="825.0" type="curve" smooth="yes"/>
      <point x="371.0" y="825.0"/>
      <point x="351.0" y="808.0"/>
      <point x="351.0" y="783.0" type="curve" smooth="yes"/>
      <point x="351.0" y="757.0"/>
      <point x="371.0" y="741.0"/>
    </contour>
  </outline>
</glyph>
<glyph name="dieresiscomb_macroncomb" format="2">
  <advance width="600.0"/>
  <anchor x="300.0" y="425.0" name="_top"/>
  <outline>
    <contour>
      <point x="228.0" y="536.0" type="curve" smooth="yes"/>
      <point x="250.0" y="536.0"/>
      <point x="269.0" y="552.0"/>
      <point x="269.0" y="578.0" type="curve" smooth="yes"/>
      <point x="269.0" y="603.0"/>
      <point x="250.0" y="620.0"/>
      <point x="228.0" y="620.0" type="curve" smooth="yes"/>
      <point x="205.0" y="620.0"/>
      <point x="185.0" y="603.0"/>
      <point x="185.0" y="578.0" type="curve" smooth="yes"/>
      <point x="185.0" y="552.0"/>
      <point x="205.0" y="536.0"/>
    </contour>
    <contour>
      <point x="374.0" y="536.0" type="curve" smooth="yes"/>
      <point x="396.0" y="536.0"/>
      <point x="415.0" y="552.0"/>
      <point x="415.0" y="578.0" type="curve" smooth="yes"/>
      <point x="415.0" y="603.0"/>
      <point x="396.0" y="620.0"/>
      <point x="374.0" y="620.0" type="curve" smooth="yes"/>
      <point x="351.0" y="620.0"/>
      <point x="331.0" y="603.0"/>
      <point x="331.0" y="578.0" type="curve" smooth="yes"/>
      <point x="331.0" y="552.0"/>
      <point x="351.0" y="536.0"/>
    </contour>
    <contour>
      <point x="162.0" y="738.0" type="line"/>
      <point x="162.0" y="691.0" type="line"/>
      <point x="438.0" y="691.0" type="line"/>
      <point x="438.0" y="738.0" type="line"/>
    </contour>
  </outline>
</glyph>
<glyph name="five.osf" format="2">
  <advance width="434.2890764097349"/>
  <note>
    five.onum
  </note>
  <outline>
    <contour>
      <point x="167.2890764097349" y="-228.0" type="curve" smooth="yes"/>
      <point x="283.2890764097347" y="-228.0"/>
      <point x="389.2890764097349" y="-141.0"/>
      <point x="389.2890764097349" y="-31.0" type="curve" smooth="yes"/>
      <point x="389.2890764097349" y="86.456768"/>
      <point x="295.4189908326594" y="151.4117617229549"/>
      <point x="122.3183750360322" y="179.18732565657365" type="curve"/>
      <point x="142.2890764097349" y="357.0" type="line"/>
      <point x="355.2890764097349" y="357.0" type="line"/>
      <point x="362.2890764097349" y="425.0" type="line"/>
      <point x="105.28907640973489" y="425.0" type="line"/>
      <point x="71.5353167808214" y="123.48544520547875" type="line"/>
      <point x="230.5353167808214" y="101.48544520547875"/>
      <point x="326.2890764097349" y="62.0"/>
      <point x="326.2890764097349" y="-48.0" type="curve" smooth="yes"/>
      <point x="326.2890764097349" y="-142.0"/>
      <point x="254.86967614040032" y="-191.78770233492787"/>
      <point x="175.1602660710771" y="-191.78770233492787" type="curve" smooth="yes"/>
      <point x="151.72719584751962" y="-191.78770233492787"/>
      <point x="139.16436602926046" y="-185.85896585745218"/>
      <point x="129.00081778215917" y="-180.35371055693895" type="curve"/>
      <point x="117.99030718113295" y="-165.10838818628713"/>
      <point x="100.80246646369483" y="-133.47832065603643"/>
      <point x="96.7644507953571" y="-124.51589563606717" type="curve"/>
      <point x="91.24911232152976" y="-120.37939178069678"/>
      <point x="79.6275062516795" y="-117.44976195130585"/>
      <point x="72.82882157459767" y="-117.44976195130585" type="curve" smooth="yes"/>
      <point x="45.20974786175091" y="-117.44976195130585"/>
      <point x="30.72410307194832" y="-139.24074629349184"/>
      <point x="30.72410307194832" y="-159.45903165194613" type="curve" smooth="yes"/>
      <point x="30.72410307194832" y="-200.91672789201073"/>
      <point x="83.7470739917901" y="-228.0"/>
    </contour>
  </outline>
</glyph>
<glyph name="four.osf" format="2">
  <advance width="527.0"/>
  <note>
four.onum
</note>
  <outline>
    <contour>
      <point x="381.0" y="-205.0" type="line"/>
      <point x="381.0" y="278.0" type="line"/>
      <point x="381.0" y="327.0"/>
      <point x="382.0" y="375.0"/>
      <point x="383.0" y="429.0" type="curve"/>
      <point x="361.0" y="429.0" type="line"/>
      <point x="38.0" y="47.0" type="line"/>
      <point x="48.0" y="18.0" type="line"/>
      <point x="479.0" y="18.0" type="line"/>
      <point x="479.0" y="69.0" type="line"/>
      <point x="99.0" y="69.0" type="line"/>
      <point x="100.0" y="49.0" type="line"/>
      <point x="351.0" y="355.0" type="line"/>
      <point x="324.0" y="350.0" type="line"/>
      <point x="324.0" y="-205.0" type="line"/>
    </contour>
  </outline>
</glyph>
<glyph name="four.tf" format="2">
  <advance width="540.0"/>
  <note>
four
</note>
  <outline>
    <contour>
      <point x="380.0" y="173.0" type="curve"/>
      <point x="379.0" y="453.0" type="line"/>
      <point x="379.0" y="500.0"/>
      <point x="380.0" y="543.0"/>
      <point x="382.0" y="591.0" type="curve"/>
      <point x="363.0" y="591.0" type="line"/>
      <point x="60.0" y="201.0" type="line"/>
      <point x="68.0" y="173.0" type="line"/>
      <point x="471.0" y="173.0" type="line"/>
      <point x="471.0" y="226.0" type="line"/>
      <point x="115.0" y="226.0" type="line"/>
      <point x="111.0" y="205.0" type="line"/>
      <point x="355.0" y="520.0" type="line"/>
      <point x="328.0" y="520.0" type="line"/>
      <point x="328.0" y="173.0" type="line"/>
      <point x="328.0" y="81.0"/>
      <point x="328.0" y="56.0"/>
      <point x="327.0" y="43.0" type="curve"/>
      <point x="249.0" y="30.0" type="line"/>
      <point x="251.0" y="0.0" type="line"/>
      <point x="439.0" y="0.0" type="line"/>
      <point x="441.0" y="30.0" type="line"/>
      <point x="382.0" y="43.0" type="line"/>
      <point x="381.0" y="56.0"/>
      <point x="380.0" y="81.0"/>
    </contour>
  </outline>
</glyph>
<glyph name="horncomb.case" format="2">
  <anchor x="374.0" y="649.0" name="_topright"/>
  <outline>
    <contour>
      <point x="374.0" y="649.0" type="curve" smooth="yes"/>
      <point x="362.0" y="649.0" type="line"/>
      <point x="362.0" y="614.0" type="line"/>
      <point x="362.0" y="614.0" type="line" smooth="yes"/>
      <point x="462.0" y="614.0"/>
      <point x="495.0" y="663.0"/>
      <point x="495.0" y="709.0" type="curve" smooth="yes"/>
      <point x="495.0" y="744.0"/>
      <point x="456.0" y="753.0"/>
      <point x="423.0" y="744.0" type="curve"/>
      <point x="423.0" y="711.0" type="line" smooth="yes"/>
      <point x="421.0" y="669.0"/>
      <point x="410.0" y="649.0"/>
    </contour>
  </outline>
</glyph>
<glyph name="ogonekcomb.case" format="2">
  <note>
uni0328
</note>
  <anchor x="306.0" y="0.0" name="_ogonek"/>
  <outline>
    <contour>
      <point x="256.0" y="-223.0" type="curve" smooth="yes"/>
      <point x="297.0" y="-223.0"/>
      <point x="332.0" y="-202.0"/>
      <point x="356.0" y="-173.0" type="curve"/>
      <point x="337.0" y="-152.0" type="line"/>
      <point x="318.0" y="-172.0"/>
      <point x="296.0" y="-187.0"/>
      <point x="268.0" y="-187.0" type="curve" smooth="yes"/>
      <point x="230.0" y="-187.0"/>
      <point x="207.0" y="-163.0"/>
      <point x="207.0" y="-126.0" type="curve" smooth="yes"/>
      <point x="207.0" y="-81.0"/>
      <point x="240.0" y="-38.0"/>
      <point x="306.0" y="0.0" type="curve"/>
      <point x="300.0" y="16.0" type="line"/>
      <point x="212.0" y="-19.0"/>
      <point x="150.0" y="-74.0"/>
      <point x="150.0" y="-137.0" type="curve" smooth="yes"/>
      <point x="150.0" y="-184.0"/>
      <point x="187.0" y="-223.0"/>
    </contour>
  </outline>
</glyph>
<glyph name="one.tosf" format="2">
  <advance width="540.0"/>
  <note>
one.onum
</note>
  <outline>
    <contour>
      <point x="315.0" y="45.0" type="line"/>
      <point x="314.0" y="67.0"/>
      <point x="314.0" y="89.0"/>
      <point x="314.0" y="146.0" type="curve" smooth="yes"/>
      <point x="314.0" y="323.0" type="line" smooth="yes"/>
      <point x="314.0" y="365.0"/>
      <point x="314.0" y="405.0"/>
      <point x="316.0" y="434.0" type="curve"/>
      <point x="148.0" y="362.0" type="line"/>
      <point x="151.0" y="329.0" type="line"/>
      <point x="258.0" y="349.0" type="line"/>
      <point x="260.0" y="327.0"/>
      <point x="260.0" y="311.0"/>
      <point x="260.0" y="289.0" type="curve" smooth="yes"/>
      <point x="260.0" y="137.0" type="line" smooth="yes"/>
      <point x="260.0" y="89.0"/>
      <point x="260.0" y="69.0"/>
      <point x="259.0" y="45.0" type="curve"/>
      <point x="157.0" y="33.0" type="line"/>
      <point x="159.0" y="0.0" type="line"/>
      <point x="415.0" y="0.0" type="line"/>
      <point x="417.0" y="33.0" type="line"/>
    </contour>
  </outline>
</glyph>
<glyph name="seven.dnom" format="2">
  <advance width="400.0"/>
  <note>
uni2087
</note>
  <outline>
    <contour>
      <point x="137.0" y="0.0" type="line"/>
      <point x="192.0" y="0.0" type="line"/>
      <point x="356.0" y="363.0" type="line"/>
      <point x="354.0" y="389.0" type="line"/>
      <point x="336.0" y="389.0"/>
      <point x="318.0" y="388.0"/>
      <point x="301.0" y="388.0" type="curve"/>
      <point x="138.0" y="388.0" type="line" smooth="yes"/>
      <point x="110.0" y="388.0"/>
      <point x="88.0" y="389.0"/>
      <point x="67.0" y="390.0" type="curve"/>
      <point x="51.0" y="280.0" type="line"/>
      <point x="80.0" y="278.0" type="line"/>
      <point x="101.0" y="327.0" type="line"/>
      <point x="106.0" y="328.0"/>
      <point x="116.0" y="329.0"/>
      <point x="126.0" y="329.0" type="curve"/>
      <point x="317.0" y="329.0" type="line"/>
      <point x="316.0" y="353.0" type="line"/>
      <point x="137.0" y="21.0" type="line"/>
    </contour>
  </outline>
</glyph>
<glyph name="seven.osf" format="2">
  <advance width="477.0"/>
  <note>
seven.onum
</note>
  <outline>
    <contour>
      <point x="214.0" y="-220.0" type="line"/>
      <point x="451.0" y="397.0" type="line"/>
      <point x="447.0" y="426.0" type="line"/>
      <point x="419.0" y="426.0"/>
      <point x="389.0" y="425.0"/>
      <point x="362.0" y="425.0" type="curve" smooth="yes"/>
      <point x="163.0" y="425.0" type="line" smooth="yes"/>
      <point x="112.0" y="425.0"/>
      <point x="87.0" y="426.0"/>
      <point x="54.0" y="430.0" type="curve"/>
      <point x="35.0" y="265.0" type="line"/>
      <point x="70.0" y="261.0" type="line"/>
      <point x="102.0" y="360.0" type="line"/>
      <point x="107.0" y="362.0"/>
      <point x="118.0" y="363.0"/>
      <point x="134.0" y="363.0" type="curve" smooth="yes"/>
      <point x="401.0" y="363.0" type="line"/>
      <point x="405.0" y="391.0" type="line"/>
      <point x="152.0" y="-192.0" type="line"/>
      <point x="152.0" y="-220.0" type="line"/>
    </contour>
  </outline>
</glyph>
<glyph name="slashshortcomb.case" format="2">
  <anchor x="376.0" y="330.0" name="_center"/>
  <outline>
    <contour>
      <point x="247.0" y="213.0" type="line"/>
      <point x="531.0" y="409.0" type="line"/>
      <point x="505.0" y="447.0" type="line"/>
      <point x="220.0" y="251.0" type="line"/>
    </contour>
  </outline>
</glyph>
<glyph name="three.tf" format="2">
  <advance width="540.0"/>
  <note>
    three
  </note>
  <outline>
    <contour>
      <point x="222.44717826134706" y="-9.0" type="curve" smooth="yes"/>
      <point x="344.69189608748184" y="-9.0"/>
      <point x="456.0" y="74.0"/>
      <point x="456.0" y="177.0" type="curve" smooth="yes"/>
      <point x="456.0" y="266.0"/>
      <point x="386.0" y="321.0"/>
      <point x="280.0" y="326.0" type="curve"/>
      <point x="272.0" y="317.0" type="line"/>
      <point x="350.0" y="345.0"/>
      <point x="416.0" y="401.0"/>
      <point x="416.0" y="467.0" type="curve" smooth="yes"/>
      <point x="416.0" y="544.0"/>
      <point x="354.0" y="596.0"/>
      <point x="255.0" y="596.0" type="curve" smooth="yes"/>
      <point x="181.0" y="596.0"/>
      <point x="114.0" y="557.0"/>
      <point x="84.0" y="494.0" type="curve"/>
      <point x="104.0" y="479.0" type="line"/>
      <point x="137.0" y="523.0"/>
      <point x="185.0" y="542.0"/>
      <point x="238.0" y="542.0" type="curve" smooth="yes"/>
      <point x="313.0" y="542.0"/>
      <point x="357.0" y="508.0"/>
      <point x="357.0" y="447.0" type="curve" smooth="yes"/>
      <point x="357.0" y="374.0"/>
      <point x="302.0" y="332.0"/>
      <point x="179.0" y="320.0" type="curve"/>
      <point x="185.0" y="283.0" type="line"/>
      <point x="220.0" y="287.0"/>
      <point x="239.0" y="287.0"/>
      <point x="257.0" y="287.0" type="curve" smooth="yes"/>
      <point x="341.0" y="287.0"/>
      <point x="397.0" y="239.0"/>
      <point x="397.0" y="163.0" type="curve" smooth="yes"/>
      <point x="397.0" y="70.0"/>
      <point x="305.34188070880805" y="27.450910929151178"/>
      <point x="236.37316152707763" y="27.450910929151178" type="curve" smooth="yes"/>
      <point x="218.31161358891416" y="27.450910929151178"/>
      <point x="202.0408966682396" y="28.685867435342743"/>
      <point x="189.7436843518849" y="34.12346171272975" type="curve"/>
      <point x="180.79452295956685" y="48.8124633177913"/>
      <point x="160.67613659197264" y="85.76065366596936"/>
      <point x="156.2985924650559" y="95.29099860986798" type="curve"/>
      <point x="148.21260040300308" y="99.67951294287309"/>
      <point x="140.4695352556639" y="102.15925887837261"/>
      <point x="132.77918628450152" y="102.15925887837261" type="curve" smooth="yes"/>
      <point x="105.85064448712019" y="102.15925887837261"/>
      <point x="90.2617843053929" y="82.47207127895854"/>
      <point x="90.2617843053929" y="59.45199456988439" type="curve" smooth="yes"/>
      <point x="90.2617843053929" y="13.473743879020958"/>
      <point x="143.44717826134706" y="-9.0"/>
    </contour>
  </outline>
</glyph>
<glyph name="tildecomb.case" format="2">
  <note>
tildecomb.cap
</note>
  <anchor x="300.0" y="660.0" name="_top"/>
  <anchor x="300.0" y="882.0" name="top"/>
  <outline>
    <contour>
      <point x="466.0" y="830.0" type="line"/>
      <point x="446.0" y="800.0"/>
      <point x="429.0" y="779.0"/>
      <point x="394.0" y="779.0" type="curve" smooth="yes"/>
      <point x="340.0" y="779.0"/>
      <point x="282.0" y="838.0"/>
      <point x="221.0" y="838.0" type="curve" smooth="yes"/>
      <point x="171.0" y="838.0"/>
      <point x="130.0" y="801.0"/>
      <point x="107.0" y="747.0" type="curve"/>
      <point x="134.0" y="733.0" type="line"/>
      <point x="154.0" y="763.0"/>
      <point x="170.0" y="784.0"/>
      <point x="208.0" y="784.0" type="curve" smooth="yes"/>
      <point x="260.0" y="784.0"/>
      <point x="318.0" y="724.0"/>
      <point x="379.0" y="724.0" type="curve" smooth="yes"/>
      <point x="429.0" y="724.0"/>
      <point x="470.0" y="761.0"/>
      <point x="493.0" y="816.0" type="curve"/>
    </contour>
  </outline>
</glyph>
<glyph name="tildecomb_macroncomb" format="2">
  <anchor x="297.0" y="425.0" name="_top"/>
  <outline>
    <contour>
      <point x="372.0" y="523.0" type="curve" smooth="yes"/>
      <point x="415.0" y="523.0"/>
      <point x="451.0" y="561.0"/>
      <point x="472.0" y="617.0" type="curve"/>
      <point x="442.0" y="633.0" type="line"/>
      <point x="425.0" y="602.0"/>
      <point x="409.0" y="580.0"/>
      <point x="380.0" y="580.0" type="curve" smooth="yes"/>
      <point x="333.0" y="580.0"/>
      <point x="281.0" y="641.0"/>
      <point x="228.0" y="641.0" type="curve" smooth="yes"/>
      <point x="185.0" y="641.0"/>
      <point x="149.0" y="603.0"/>
      <point x="128.0" y="547.0" type="curve"/>
      <point x="158.0" y="531.0" type="line"/>
      <point x="175.0" y="562.0"/>
      <point x="189.0" y="584.0"/>
      <point x="222.0" y="584.0" type="curve" smooth="yes"/>
      <point x="267.0" y="584.0"/>
      <point x="319.0" y="523.0"/>
    </contour>
    <contour>
      <point x="162.0" y="691.0" type="line"/>
      <point x="438.0" y="691.0" type="line"/>
      <point x="438.0" y="738.0" type="line"/>
      <point x="162.0" y="738.0" type="line"/>
    </contour>
  </outline>
</glyph>
<glyph name="two.osf" format="2">
  <advance width="435.0"/>
  <note>
two.onum
</note>
  <outline>
    <contour>
      <point x="69.0" y="-3.0" type="line"/>
      <point x="105.0" y="-2.0"/>
      <point x="120.0" y="-1.0"/>
      <point x="132.0" y="-1.0" type="curve" smooth="yes"/>
      <point x="297.0" y="-1.0" type="line" smooth="yes"/>
      <point x="362.0" y="-1.0"/>
      <point x="364.0" y="-1.0"/>
      <point x="376.0" y="-2.0" type="curve"/>
      <point x="395.0" y="113.0" type="line"/>
      <point x="356.0" y="113.0" type="line"/>
      <point x="337.0" y="58.0" type="line"/>
      <point x="320.0" y="55.0"/>
      <point x="303.0" y="55.0"/>
      <point x="277.0" y="55.0" type="curve" smooth="yes"/>
      <point x="141.0" y="55.0" type="line"/>
      <point x="125.0" y="34.0" type="line"/>
      <point x="261.0" y="107.0"/>
      <point x="351.0" y="217.0"/>
      <point x="351.0" y="301.0" type="curve" smooth="yes"/>
      <point x="351.0" y="383.0"/>
      <point x="295.0" y="433.0"/>
      <point x="203.0" y="433.0" type="curve" smooth="yes"/>
      <point x="131.0" y="433.0"/>
      <point x="72.0" y="397.0"/>
      <point x="41.0" y="338.0" type="curve"/>
      <point x="64.0" y="318.0" type="line"/>
      <point x="98.0" y="361.0"/>
      <point x="140.0" y="384.0"/>
      <point x="191.0" y="384.0" type="curve" smooth="yes"/>
      <point x="251.0" y="384.0"/>
      <point x="288.0" y="352.0"/>
      <point x="288.0" y="291.0" type="curve" smooth="yes"/>
      <point x="288.0" y="209.0"/>
      <point x="219.0" y="128.0"/>
      <point x="65.0" y="21.0" type="curve"/>
    </contour>
  </outline>
</glyph>
<glyph name="two.tf" format="2">
  <advance width="540.0"/>
  <note>
two
</note>
  <outline>
    <contour>
      <point x="83.0" y="-2.0" type="line"/>
      <point x="107.0" y="-1.0"/>
      <point x="131.0" y="0.0"/>
      <point x="154.0" y="0.0" type="curve" smooth="yes"/>
      <point x="375.0" y="0.0" type="line" smooth="yes"/>
      <point x="421.0" y="0.0"/>
      <point x="432.0" y="-1.0"/>
      <point x="459.0" y="-4.0" type="curve"/>
      <point x="479.0" y="150.0" type="line"/>
      <point x="450.0" y="153.0" type="line"/>
      <point x="415.0" y="63.0" type="line"/>
      <point x="412.0" y="61.0"/>
      <point x="396.0" y="60.0"/>
      <point x="389.0" y="60.0" type="curve" smooth="yes"/>
      <point x="145.0" y="60.0" type="line"/>
      <point x="136.0" y="43.0" type="line"/>
      <point x="335.0" y="188.0"/>
      <point x="429.0" y="319.0"/>
      <point x="429.0" y="428.0" type="curve" smooth="yes"/>
      <point x="429.0" y="529.0"/>
      <point x="355.0" y="596.0"/>
      <point x="244.0" y="596.0" type="curve" smooth="yes"/>
      <point x="162.0" y="596.0"/>
      <point x="91.0" y="548.0"/>
      <point x="61.0" y="474.0" type="curve"/>
      <point x="80.0" y="460.0" type="line"/>
      <point x="117.0" y="513.0"/>
      <point x="170.0" y="542.0"/>
      <point x="230.0" y="542.0" type="curve" smooth="yes"/>
      <point x="313.0" y="542.0"/>
      <point x="363.0" y="491.0"/>
      <point x="363.0" y="411.0" type="curve" smooth="yes"/>
      <point x="363.0" y="303.0"/>
      <point x="292.0" y="204.0"/>
      <point x="77.0" y="25.0" type="curve"/>
    </contour>
  </outline>
</glyph>
<glyph name="two.tosf" format="2">
  <advance width="540.0"/>
  <note>
two.onum
</note>
  <outline>
    <contour>
      <point x="120.0" y="-3.0" type="line"/>
      <point x="156.0" y="-2.0"/>
      <point x="177.0" y="-1.0"/>
      <point x="190.0" y="-1.0" type="curve" smooth="yes"/>
      <point x="370.0" y="-1.0" type="line" smooth="yes"/>
      <point x="439.0" y="-1.0"/>
      <point x="442.0" y="-1.0"/>
      <point x="456.0" y="-2.0" type="curve"/>
      <point x="474.0" y="120.0" type="line"/>
      <point x="435.0" y="120.0" type="line"/>
      <point x="415.0" y="65.0" type="line"/>
      <point x="398.0" y="62.0"/>
      <point x="378.0" y="62.0"/>
      <point x="350.0" y="62.0" type="curve" smooth="yes"/>
      <point x="200.0" y="62.0" type="line"/>
      <point x="178.0" y="34.0" type="line"/>
      <point x="332.0" y="107.0"/>
      <point x="429.0" y="217.0"/>
      <point x="429.0" y="301.0" type="curve" smooth="yes"/>
      <point x="429.0" y="383.0"/>
      <point x="368.0" y="433.0"/>
      <point x="269.0" y="433.0" type="curve" smooth="yes"/>
      <point x="191.0" y="433.0"/>
      <point x="126.0" y="397.0"/>
      <point x="92.0" y="338.0" type="curve"/>
      <point x="115.0" y="318.0" type="line"/>
      <point x="153.0" y="361.0"/>
      <point x="199.0" y="384.0"/>
      <point x="257.0" y="384.0" type="curve" smooth="yes"/>
      <point x="324.0" y="384.0"/>
      <point x="364.0" y="352.0"/>
      <point x="364.0" y="291.0" type="curve" smooth="yes"/>
      <point x="364.0" y="209.0"/>
      <point x="288.0" y="128.0"/>
      <point x="116.0" y="21.0" type="curve"/>
    </contour>
  </outline>
</glyph>
<glyph name="zero.numr" format="2">
  <advance width="400.0"/>
  <note>
uni2080
</note>
  <outline>
    <contour>
      <point x="203.0" y="193.0" type="curve" smooth="yes"/>
      <point x="292.0" y="193.0"/>
      <point x="358.0" y="280.0"/>
      <point x="358.0" y="397.0" type="curve" smooth="yes"/>
      <point x="358.0" y="516.0"/>
      <point x="297.0" y="593.0"/>
      <point x="205.0" y="593.0" type="curve" smooth="yes"/>
      <point x="109.0" y="593.0"/>
      <point x="43.0" y="511.0"/>
      <point x="43.0" y="391.0" type="curve" smooth="yes"/>
      <point x="43.0" y="273.0"/>
      <point x="105.0" y="193.0"/>
    </contour>
    <contour>
      <point x="208.0" y="230.0" type="curve" smooth="yes"/>
      <point x="148.0" y="230.0"/>
      <point x="110.0" y="296.0"/>
      <point x="110.0" y="405.0" type="curve" smooth="yes"/>
      <point x="110.0" y="502.0"/>
      <point x="146.0" y="558.0"/>
      <point x="199.0" y="558.0" type="curve" smooth="yes"/>
      <point x="255.0" y="558.0"/>
      <point x="292.0" y="489.0"/>
      <point x="292.0" y="381.0" type="curve" smooth="yes"/>
      <point x="292.0" y="289.0"/>
      <point x="264.0" y="230.0"/>
    </contour>
  </outline>
</glyph>
